<?xml version="1.0" encoding="UTF-8"?>
<svg version="1.1" xmlns="http://www.w3.org/2000/svg" width="600" height="234">
<path d="M0 0 C0.0251577 4.42504534 0.04307066 8.85005022 0.05493164 13.27514648 C0.05988838 14.77320076 0.06665574 16.27125039 0.07543945 17.76928711 C0.12620335 26.66491384 -0.08388512 35.453918 -0.74829102 44.33129883 C-1.2622951 51.82299561 -1.3958048 59.33269758 -1.60546875 66.83789062 C-1.79075778 72.9875697 -2.05234472 79.11055689 -2.515625 85.24609375 C-2.96240214 91.17047531 -3.21426767 97.0595007 -3.25 103 C-3.270625 103.88816406 -3.29125 104.77632813 -3.3125 105.69140625 C-3.34341836 110.87796198 -3.00037596 114.5670121 0 119 C3.66266887 122.59327093 7.29411473 122.75658806 12.2421875 123.046875 C16.53300999 122.97394317 18.42084212 122.48349731 22 120 C26.48168975 112.99650318 27.12130182 105.38789767 27.28125 97.25 C27.29965942 96.51483154 27.31806885 95.77966309 27.33703613 95.0222168 C27.39536077 92.68155357 27.44823984 90.34081692 27.5 88 C28.20273471 56.79726529 28.20273471 56.79726529 30 55 C32.69654854 54.92680379 35.36691458 54.90757463 38.0625 54.9375 C39.20041992 54.94426758 39.20041992 54.94426758 40.36132812 54.95117188 C42.24091871 54.9629932 44.12046899 54.98092922 46 55 C46.23263039 69.56087276 46.04983136 84.03235712 45.125 98.5625 C45.04652832 99.850354 44.96805664 101.13820801 44.88720703 102.46508789 C44.04547355 114.79462538 43.16284887 124.69708639 34.25 133.8125 C30.32488443 136.45440471 26.53794175 137.77888113 22 139 C21.34128906 139.185625 20.68257813 139.37125 20.00390625 139.5625 C9.92483144 141.76299976 -2.23103539 139.26137877 -11 134 C-11 133.34 -11 132.68 -11 132 C-11.99 131.67 -12.98 131.34 -14 131 C-15.5703125 128.9609375 -15.5703125 128.9609375 -17.125 126.375 C-17.90230469 125.11816406 -17.90230469 125.11816406 -18.6953125 123.8359375 C-21.38935289 117.98002934 -21.16166855 111.55437473 -21.125 105.22265625 C-21.12234131 104.36487076 -21.11968262 103.50708527 -21.11694336 102.62330627 C-21.03467985 90.88663307 -20.49578138 79.16239696 -20 67.4375 C-19.85565908 63.97598182 -19.71255386 60.5144246 -19.57202148 57.05274963 C-19.48534764 54.92223052 -19.39648693 52.79179869 -19.30493164 50.66148376 C-19.03580729 44.10370993 -18.94935763 37.56306075 -19 31 C-34.89298249 48.36455495 -42.81320453 70.28787793 -42.25 93.76171875 C-41.21686984 116.63005494 -30.07839433 137.81673751 -13.5625 153.25 C6.24038508 170.61143349 28.80100063 175.31883426 54.5 173.75 C64.19379849 172.73553272 73.11826064 169.22651798 81.7578125 164.85546875 C84 164 84 164 87 165 C86.67 169.95 86.34 174.9 86 180 C71.74837154 186.54411511 58.97453992 189.5660656 43.1875 189.4375 C41.87523438 189.42992676 40.56296875 189.42235352 39.2109375 189.41455078 C13.23774465 188.97459932 -10.22585069 178.30837 -28.921875 160.25 C-50.04291435 138.29366531 -57.54615603 112.04261984 -57.04589844 82.16748047 C-56.56492162 59.454118 -46.12493961 37.73180503 -31 21 C-30.34 21 -29.68 21 -29 21 C-28.67 20.01 -28.34 19.02 -28 18 C-27.34 18 -26.68 18 -26 18 C-25.67 17.01 -25.34 16.02 -25 15 C-7.65714286 0 -7.65714286 0 0 0 Z " fill="#F7FAF8" transform="translate(68,33)"/>
<path d="M0 0 C1.07894531 0.01675781 2.15789062 0.03351562 3.26953125 0.05078125 C28.21491425 1.24515663 51.79866706 16.53293685 68.1875 34.4375 C78.38790105 46.30034066 84.88721879 58.91980221 89 74 C89.21527344 74.74121094 89.43054688 75.48242188 89.65234375 76.24609375 C96.57291005 101.35208976 90.94932009 128.79357387 78.41015625 151.06640625 C75.16983013 156.53734383 71.22201279 161.25326286 67 166 C66.0409375 167.24716797 66.0409375 167.24716797 65.0625 168.51953125 C59.47403238 175.2405103 50.93123149 182.19961824 43 186 C42.01 185.67 41.02 185.34 40 185 C39.7262261 161.66838006 40.53163639 138.28405146 42 115 C32.43 115 22.86 115 13 115 C13.01160156 117.51496094 13.02320313 120.02992188 13.03515625 122.62109375 C13.04294673 125.0469551 13.04902354 127.47281507 13.05493164 129.89868164 C13.0599719 131.58944316 13.06680405 133.28020029 13.07543945 134.97094727 C13.08751857 137.39600707 13.09323123 139.82100944 13.09765625 142.24609375 C13.10281754 143.00651474 13.10797882 143.76693573 13.11329651 144.55039978 C13.11349238 146.3673257 13.06197277 148.18413127 13 150 C12 151 12 151 8.83984375 151.09765625 C6.90818359 151.08025391 6.90818359 151.08025391 4.9375 151.0625 C3.64714844 151.05347656 2.35679688 151.04445312 1.02734375 151.03515625 C-0.47119141 151.01775391 -0.47119141 151.01775391 -2 151 C-2.22632874 129.14012565 -2.06916818 107.34112843 -1.0625 85.5 C-1.01893372 84.52454224 -0.97536743 83.54908447 -0.93048096 82.54406738 C-0.80532294 79.78942616 -0.67226342 77.03531986 -0.53515625 74.28125 C-0.49655991 73.45401428 -0.45796356 72.62677856 -0.41819763 71.7744751 C-0.11675816 66.11675816 -0.11675816 66.11675816 1 65 C3.16480797 64.9010706 5.33293785 64.870289 7.5 64.875 C8.6859375 64.87242188 9.871875 64.86984375 11.09375 64.8671875 C14 65 14 65 15 66 C15.10362044 68.51127188 15.14040923 70.98857105 15.125 73.5 C15.12306641 74.25015381 15.12113281 75.00030762 15.11914062 75.77319336 C15.05850296 83.87253233 14.54321141 91.91973022 14 100 C23.24 100 32.48 100 42 100 C42.07347656 96.71289062 42.07347656 96.71289062 42.1484375 93.359375 C42.20248602 91.23121458 42.25977816 89.10316443 42.31738281 86.97509766 C42.35560666 85.49894464 42.39047103 84.02270057 42.421875 82.54638672 C42.46766986 80.42121906 42.52563837 78.29667458 42.5859375 76.171875 C42.63306885 74.2552002 42.63306885 74.2552002 42.68115234 72.29980469 C42.97346385 69.27462676 43.40581489 67.53950891 45 65 C46.97909398 64.97313447 48.95828971 64.95366625 50.9375 64.9375 C52.03964844 64.92589844 53.14179688 64.91429688 54.27734375 64.90234375 C57 65 57 65 58 66 C58.10173787 68.83368763 58.1395019 71.64242854 58.1328125 74.4765625 C58.13479141 75.77968384 58.13479141 75.77968384 58.1368103 77.10913086 C58.13873548 79.94778961 58.13237203 82.78635118 58.125 85.625 C58.12367065 87.06924347 58.12367065 87.06924347 58.12231445 88.54266357 C58.1097348 100.11521686 57.99147364 111.65581749 57.3581543 123.21362305 C56.79506577 133.80273101 56.90848277 144.39948916 57 155 C73.50489292 132.76278139 79.19915547 110.50487125 75.62109375 83.09765625 C72.08744954 62.94633388 59.97093923 44.51471051 44 32 C24.41797076 18.35415824 1.42946555 11.97416995 -22.32739258 15.87280273 C-28.49817779 17.00954569 -34.27562671 18.56572086 -39.984375 21.23046875 C-42 22 -42 22 -46 22 C-46.22281874 20.08496326 -46.42771076 18.16783494 -46.625 16.25 C-46.74101563 15.18265625 -46.85703125 14.1153125 -46.9765625 13.015625 C-47.0009695 9.87525797 -46.90519439 8.47341026 -45 6 C-31.54379007 -0.93982855 -14.70758753 -0.28798547 0 0 Z " fill="#04A551" transform="translate(119,23)"/>
<path d="M0 0 C0.35403442 1.95993042 0.35403442 1.95993042 0.32470703 4.38623047 C0.32125275 5.29412323 0.31779846 6.20201599 0.3142395 7.13742065 C0.29561859 8.12074371 0.27699768 9.10406677 0.2578125 10.1171875 C0.24788773 11.63023972 0.24788773 11.63023972 0.23776245 13.17385864 C0.21429333 16.40787792 0.17058671 19.64122306 0.125 22.875 C0.08993396 26.10155578 0.05911809 29.32807215 0.03366089 32.55471802 C0.01669529 34.5647713 -0.00643736 36.57478392 -0.03634644 38.58468628 C-0.05098434 39.9559819 -0.05098434 39.9559819 -0.06591797 41.35498047 C-0.08282181 42.55838577 -0.08282181 42.55838577 -0.10006714 43.78610229 C-0.00049301 45.9890925 0.38717568 47.8871157 1 50 C13.22767399 46.60495733 24.55918687 41.86606809 35.828125 36.1015625 C40.001748 33.97548832 44.24427312 32.01742582 48.5 30.0625 C55.13978639 27.00829014 61.48920694 23.58863079 67.73632812 19.79321289 C71.30245127 17.68802888 73.82573061 16.49016557 78 17 C77.47274826 21.55423241 77.47274826 21.55423241 75.42578125 23.484375 C74.72839844 23.90203125 74.03101563 24.3196875 73.3125 24.75 C72.50167969 25.25015625 71.69085938 25.7503125 70.85546875 26.265625 C69.91316406 26.83796875 68.97085938 27.4103125 68 28 C66.30598919 29.10678027 64.61208941 30.21373951 62.92114258 31.32519531 C57.39548894 34.93936485 51.80935518 38.31168208 45.97265625 41.40625 C43.00206166 42.99889467 40.07203388 44.65065008 37.14282227 46.31762695 C27.07401079 52.04034189 17.13552098 57.53519487 6.08203125 61.140625 C3.82339861 61.80641918 3.82339861 61.80641918 3 64 C3.99 64.33 4.98 64.66 6 65 C6 65.66 6 66.32 6 67 C7.6626783 67.35268934 9.33065717 67.68033861 11 68 C12.6396875 68.37125 12.6396875 68.37125 14.3125 68.75 C19.37555592 69.09325803 23.67165629 67.90249462 27.64453125 64.65625 C29.21489207 62.73742295 29.70725364 61.10989218 30.4375 58.75 C33.16401346 52.22546391 39.00966274 50.09540855 45 47 C46.20292079 46.21051024 47.39504043 45.40354141 48.5625 44.5625 C51 43 51 43 54 43 C54 42.34 54 41.68 54 41 C60.75 37 60.75 37 63 37 C63.11761144 40.95807715 63.18771882 44.91569621 63.25 48.875 C63.28351563 49.98359375 63.31703125 51.0921875 63.3515625 52.234375 C63.48158392 63.28619532 60.44175864 71.78443017 53 80 C43.12590558 90.00022336 32.76412727 93.18313726 18.90698242 93.32958984 C17.98892822 93.3239502 17.07087402 93.31831055 16.125 93.3125 C15.16118408 93.30686035 14.19736816 93.3012207 13.2043457 93.29541016 C-0.76539036 93.05749711 -10.2253151 89.65142764 -20.375 80 C-23.64381605 76.60095224 -27 72.96426002 -27 68 C-27.58007812 68.02320312 -28.16015625 68.04640625 -28.7578125 68.0703125 C-34.3428303 68.19933931 -38.99033382 67.97185026 -43.8125 64.8125 C-45.68121208 61.96025525 -45.82309499 59.36119523 -46 56 C-45.0625 53.5625 -45.0625 53.5625 -44 52 C-43.34 52 -42.68 52 -42 52 C-41.67 51.01 -41.34 50.02 -41 49 C-38.02827774 46.2332241 -37.25809375 46 -33 46 C-32.87625 46.969375 -32.7525 47.93875 -32.625 48.9375 C-32.41875 49.948125 -32.2125 50.95875 -32 52 C-31.34 52.33 -30.68 52.66 -30 53 C-30 35.18 -30 17.36 -30 -1 C-25.606875 -1.20625 -21.21375 -1.4125 -16.6875 -1.625 C-15.30522217 -1.69541504 -13.92294434 -1.76583008 -12.4987793 -1.83837891 C-11.40992432 -1.88397949 -10.32106934 -1.92958008 -9.19921875 -1.9765625 C-8.08377686 -2.02893066 -6.96833496 -2.08129883 -5.8190918 -2.13525391 C-3 -2 -3 -2 0 0 Z " fill="#FAFCFB" transform="translate(273,44)"/>
<path d="M0 0 C7.26 0 14.52 0 22 0 C22.33 8.25 22.66 16.5 23 25 C24.98 23.68 26.96 22.36 29 21 C35.40443563 18.86518812 42.89082775 19.17443458 49.08984375 21.8984375 C57.06250005 26.49616567 61.14434769 32.43304306 64 41 C64.66199487 51.77640822 65.2548016 61.98906004 58.4921875 71.01171875 C53.06124752 77.0362731 46.65640443 80.12869412 38.5625 80.5625 C32.58096496 80.3681846 28.04355554 78.06333091 23 75 C22.67 76.32 22.34 77.64 22 79 C14.74 79 7.48 79 0 79 C0 52.93 0 26.86 0 0 Z M24.4375 40.375 C21.84416706 45.11065146 21.32862121 48.60175162 22 54 C24.0050088 57.8026029 25.42686262 59.61790841 29 62 C32.76085101 62.49054578 34.49047233 62.31266471 37.75 60.3125 C41.14933045 56.8187437 41.9045452 54.33636717 42.25 49.5 C41.95911096 45.42755341 41.26998198 42.61491536 38.734375 39.390625 C35.83560104 37.06638282 32.96719885 37.47626155 29.3828125 37.5703125 C26.72290268 37.82902705 26.72290268 37.82902705 24.4375 40.375 Z " fill="#FBFCFB" transform="translate(392,58)"/>
<path d="M0 0 C5.35211126 2.81783341 9.02197953 5.93048837 11.44482422 11.59033203 C12.64620176 16.1411989 12.60785198 20.36212449 12.5546875 25.046875 C12.5518576 25.99281525 12.54902771 26.93875549 12.54611206 27.9133606 C12.53496432 30.91893444 12.50986965 33.92420452 12.484375 36.9296875 C12.47433821 38.97395401 12.46521359 41.01822522 12.45703125 43.0625 C12.43504267 48.06001194 12.40055009 53.0572983 12.359375 58.0546875 C8.71355813 58.08356262 5.06777037 58.10144335 1.421875 58.1171875 C-0.13950195 58.12975586 -0.13950195 58.12975586 -1.73242188 58.14257812 C-3.21645508 58.14741211 -3.21645508 58.14741211 -4.73046875 58.15234375 C-6.10513306 58.16019897 -6.10513306 58.16019897 -7.50756836 58.16821289 C-9.640625 58.0546875 -9.640625 58.0546875 -10.640625 57.0546875 C-10.76356727 54.48641202 -10.82668351 51.94081867 -10.8515625 49.37109375 C-10.87962674 47.78840104 -10.90829117 46.20571888 -10.9375 44.62304688 C-10.9788242 42.11678308 -11.01569289 39.61071715 -11.04199219 37.10424805 C-11.06951659 34.69277816 -11.11538282 32.28221667 -11.1640625 29.87109375 C-11.16731537 29.1189711 -11.17056824 28.36684845 -11.17391968 27.5919342 C-11.19523485 25.25375411 -11.19523485 25.25375411 -11.640625 22.0546875 C-15.12931151 19.72889649 -16.53781019 19.63603293 -20.640625 20.0546875 C-23.01788104 21.33969077 -24.31639656 22.13511671 -25.22631836 24.71582031 C-25.78908212 27.89276598 -25.86451045 31.00155178 -25.95703125 34.2265625 C-25.97781235 34.9089801 -25.99859344 35.59139771 -26.02000427 36.29449463 C-26.08514552 38.46446106 -26.14421904 40.63454374 -26.203125 42.8046875 C-26.24634397 44.27995971 -26.28995932 45.75522037 -26.33398438 47.23046875 C-26.44153311 50.83842449 -26.54086852 54.44647428 -26.640625 58.0546875 C-33.900625 58.0546875 -41.160625 58.0546875 -48.640625 58.0546875 C-49.91004799 55.51584151 -49.76763665 53.74418459 -49.77001953 50.90234375 C-49.77317169 49.82782959 -49.77632385 48.75331543 -49.77957153 47.64624023 C-49.7775473 46.48165283 -49.77552307 45.31706543 -49.7734375 44.1171875 C-49.77439423 42.92617432 -49.77535095 41.73516113 -49.77633667 40.50805664 C-49.77701815 37.98616483 -49.7751661 35.46427127 -49.77099609 32.94238281 C-49.76564743 29.07092366 -49.77094221 25.19958052 -49.77734375 21.328125 C-49.77668296 18.88281224 -49.77540179 16.43749956 -49.7734375 13.9921875 C-49.77546173 12.8276001 -49.77748596 11.6630127 -49.77957153 10.46313477 C-49.77641937 9.38862061 -49.77326721 8.31410645 -49.77001953 7.20703125 C-49.76922394 6.25820068 -49.76842834 5.30937012 -49.76760864 4.33178711 C-49.640625 2.0546875 -49.640625 2.0546875 -48.640625 0.0546875 C-41.380625 0.0546875 -34.120625 0.0546875 -26.640625 0.0546875 C-26.310625 2.0346875 -25.980625 4.0146875 -25.640625 6.0546875 C-24.75375 5.2709375 -23.866875 4.4871875 -22.953125 3.6796875 C-16.65707699 -1.8842619 -7.82031522 -2.7995803 0 0 Z " fill="#F9FBFA" transform="translate(574.640625,78.9453125)"/>
<path d="M0 0 C3.96391957 3.03318793 6.55850754 6.1903157 8 11 C8.33479079 14.19928647 8.39595951 17.39061531 8.44921875 20.60546875 C8.47095657 21.52588455 8.4926944 22.44630035 8.51509094 23.39460754 C8.55889027 25.33353237 8.59811637 27.27256523 8.63305664 29.21166992 C8.6875035 32.18769119 8.7576574 35.16303922 8.83007812 38.13867188 C8.87071693 40.02341778 8.91046159 41.90818322 8.94921875 43.79296875 C8.96997971 44.68565964 8.99074066 45.57835052 9.01213074 46.49809265 C9.02577164 47.32267471 9.03941254 48.14725677 9.0534668 48.99682617 C9.06741989 49.72342941 9.08137299 50.45003265 9.0957489 51.19865417 C9 53 9 53 8 55 C4.541824 55.0868329 1.08392656 55.14033282 -2.375 55.1875 C-3.35984375 55.21263672 -4.3446875 55.23777344 -5.359375 55.26367188 C-6.77089844 55.27817383 -6.77089844 55.27817383 -8.2109375 55.29296875 C-9.08024902 55.3086792 -9.94956055 55.32438965 -10.84521484 55.34057617 C-11.55629395 55.22818604 -12.26737305 55.1157959 -13 55 C-13.66 54.01 -14.32 53.02 -15 52 C-16.051875 52.66 -17.10375 53.32 -18.1875 54 C-24.48041892 57.12969325 -31.76797612 57.25021874 -38.47265625 55.26953125 C-43.61463779 52.91479204 -46.50813045 49.68536518 -49.25 44.75 C-50.68030173 39.50556033 -50.67299904 34.78344746 -48.75 29.6875 C-45.578245 24.81659053 -42.44605637 22.11233822 -37 20 C-33.03381941 19.63910505 -29.10327804 19.71696253 -25.125 19.8125 C-24.05507813 19.82603516 -22.98515625 19.83957031 -21.8828125 19.85351562 C-19.25468489 19.88871376 -16.62760806 19.93795307 -14 20 C-14.78130071 17.50447516 -14.78130071 17.50447516 -16 15 C-22.86069596 12.71310135 -29.42285904 13.7142865 -35.9921875 16.44140625 C-38.46261603 17.12870446 -39.66952198 17.07673984 -42 16 C-44.15095462 12.11544017 -46.02924437 6.37428856 -45 2 C-33.61351719 -6.00740068 -11.94491161 -7.50889027 0 0 Z M-29 34 C-28.42547254 37.93075644 -28.42547254 37.93075644 -26 41 C-22.99260964 41.33954407 -20.90034738 41.56172736 -18 41 C-15.36073642 38.95118716 -15.36073642 38.95118716 -14 36 C-13.87469035 33.3826463 -13.87469035 33.3826463 -14 31 C-15.7492214 30.91857073 -17.49954542 30.86061459 -19.25 30.8125 C-20.22453125 30.77769531 -21.1990625 30.74289063 -22.203125 30.70703125 C-25.37468742 31.03924798 -26.67040307 31.88672279 -29 34 Z " fill="#F9FBFA" transform="translate(510,82)"/>
<path d="M0 0 C5.96200701 3.32496545 9.62153028 6.47103437 12.25 12.8125 C13.2615029 19.94006698 13.51950137 26.86534473 9.5 33.0625 C5.62485513 38.1119312 1.51624137 40.65535371 -4.75 41.8125 C-8.86949945 42.09944428 -12.97728331 42.09288235 -17.10546875 42.078125 C-18.28466385 42.08003845 -19.46385895 42.0819519 -20.67878723 42.08392334 C-23.16240656 42.08528031 -25.6460331 42.08161805 -28.12963867 42.07324219 C-31.93489419 42.06250735 -35.73968069 42.07316906 -39.54492188 42.0859375 C-41.96093854 42.08461638 -44.37695492 42.08205497 -46.79296875 42.078125 C-48.50083809 42.08419769 -48.50083809 42.08419769 -50.24320984 42.09039307 C-51.30143448 42.08408875 -52.35965912 42.07778442 -53.44995117 42.07128906 C-54.37925949 42.06969788 -55.30856781 42.06810669 -56.26603699 42.06646729 C-59.81719702 41.70338681 -61.94963676 40.58427884 -64.5 38.125 C-66.27607684 34.83925784 -66.13781568 32.49674892 -65.75 28.8125 C-64.875 26.125 -64.875 26.125 -62.75 23.8125 C-60.28935169 22.64076271 -57.80672894 21.703634 -55.23828125 20.79296875 C-52.51463327 19.83767187 -52.51463327 19.83767187 -49.625 17.5625 C-45.72101246 15.18615976 -43.25705245 15.5016688 -38.75 15.8125 C-38.42 14.8225 -38.09 13.8325 -37.75 12.8125 C-36.04296875 11.71484375 -36.04296875 11.71484375 -33.9375 10.75 C-33.25042969 10.42902344 -32.56335938 10.10804687 -31.85546875 9.77734375 C-30.44810142 9.13240918 -29.04054825 8.48788001 -27.6328125 7.84375 C-25.50511004 6.80305561 -25.50511004 6.80305561 -23.4375 4.375 C-16.70980576 -2.03977822 -8.56740656 -2.71301208 0 0 Z " fill="#FBFCFC" transform="translate(461.75,8.1875)"/>
<path d="M0 0 C0.33 6.27 0.66 12.54 1 19 C3.97 16.525 3.97 16.525 7 14 C10.99540154 11.29343767 12.4121756 12 18 12 C18 18.6 18 25.2 18 32 C15.00520833 32.42317708 12.01041667 32.84635417 9.015625 33.26953125 C5.89746848 34.024836 4.29279383 34.78756109 2 37 C0.83597273 40.49208181 0.78881492 43.39147772 0.68359375 47.07421875 C0.66281265 47.7580513 0.64203156 48.44188385 0.62062073 49.1464386 C0.55533846 51.3266921 0.49633983 53.50706405 0.4375 55.6875 C0.39429447 57.16732986 0.35067953 58.64714783 0.30664062 60.12695312 C0.19967917 63.75117622 0.09835177 67.37553189 0 71 C-3.64581687 71.02887512 -7.29160463 71.04675585 -10.9375 71.0625 C-12.49887695 71.07506836 -12.49887695 71.07506836 -14.09179688 71.08789062 C-15.08115234 71.09111328 -16.07050781 71.09433594 -17.08984375 71.09765625 C-18.46450806 71.10551147 -18.46450806 71.10551147 -19.86694336 71.11352539 C-22 71 -22 71 -23 70 C-23.12499969 68.27819372 -23.18070557 66.55130534 -23.20874023 64.82519531 C-23.22803085 63.72024719 -23.24732147 62.61529907 -23.26719666 61.47686768 C-23.32469354 56.40908826 -23.3742254 51.34145575 -23.4050293 46.2734375 C-23.42282127 43.59781757 -23.45759732 40.92325598 -23.50756836 38.24804688 C-23.57439145 34.3994172 -23.60200304 30.55225213 -23.62109375 26.703125 C-23.64892441 25.50713684 -23.67675507 24.31114868 -23.70542908 23.07891846 C-23.68531291 14.97622906 -23.68531291 14.97622906 -21.70449829 12.15455627 C-20.10766602 10.79614258 -20.10766602 10.79614258 -17 9 C-16.2265625 8.52433594 -15.453125 8.04867187 -14.65625 7.55859375 C-13.9446875 7.18863281 -13.233125 6.81867188 -12.5 6.4375 C-9.74728912 4.9706254 -7.12470853 3.46663746 -4.5625 1.6875 C-2 0 -2 0 0 0 Z " fill="#FCFCFC" transform="translate(368,66)"/>
<path d="M0 0 C1.02772125 0.97148805 2.0301222 1.97075899 3 3 C6.21430214 4.78949275 9.48772781 6.43175262 12.7734375 8.0859375 C16.09610118 10.05700918 18.38777048 12.17387712 21 15 C21.825 15.804375 22.65 16.60875 23.5 17.4375 C40 34.35 40 34.35 40 42 C40.66 42 41.32 42 42 42 C42.495 45.465 42.495 45.465 43 49 C43.66 49 44.32 49 45 49 C45.45992316 50.81209723 45.91784036 52.62470361 46.375 54.4375 C46.63023437 55.44683594 46.88546875 56.45617187 47.1484375 57.49609375 C47.42945313 58.65238281 47.71046875 59.80867188 48 61 C48.17716553 61.67409912 48.35433105 62.34819824 48.53686523 63.04272461 C50.00441605 68.96353308 50.34827888 74.59974977 50.3125 80.6875 C50.30730347 82.12899414 50.30730347 82.12899414 50.30200195 83.59960938 C50.14666063 93.83668857 48.7062004 102.8020909 44 112 C43.67 113.175625 43.34 114.35125 43 115.5625 C41.3378137 121.2762654 37.80453713 125.83742857 34.4375 130.6875 C34.03853516 131.26822266 33.63957031 131.84894531 33.22851562 132.44726562 C31.5982972 134.80142079 30.02926796 136.97073204 28 139 C25.875 138.625 25.875 138.625 24 138 C23.87940435 121.8698677 24.03492503 105.7854013 24.57147217 89.66516113 C25.01876583 76.10562969 25.1061814 62.56762365 25 49 C22.03 48.67 19.06 48.34 16 48 C15.96241577 49.52923096 15.96241577 49.52923096 15.92407227 51.08935547 C15.83002996 54.86520354 15.72980163 58.64086627 15.62768555 62.41650391 C15.58432462 64.05187653 15.54265039 65.68729477 15.50268555 67.32275391 C15.44501088 69.67103841 15.38130871 72.01909304 15.31640625 74.3671875 C15.29969376 75.10057343 15.28298126 75.83395935 15.26576233 76.58956909 C15.11387171 81.77225659 15.11387171 81.77225659 14 84 C-8.48123195 84.21270452 -8.48123195 84.21270452 -16 83 C-18 81 -18 81 -18.22705078 77.74365234 C-18.22673382 76.35770705 -18.21541759 74.97173699 -18.1953125 73.5859375 C-18.1924826 72.85629791 -18.18965271 72.12665833 -18.18673706 71.37490845 C-18.17553002 69.04143972 -18.1504251 66.70835297 -18.125 64.375 C-18.11497085 62.79427637 -18.10584489 61.21354673 -18.09765625 59.6328125 C-18.07558905 55.75506086 -18.04105615 51.87759522 -18 48 C-22.455 48.495 -22.455 48.495 -27 49 C-27.72440363 59.31470757 -28.16963316 69.60395241 -28.38870239 79.94104004 C-28.75222341 96.67619272 -29.66139683 113.3132496 -31 130 C-29.046875 129.96744792 -27.09375 129.93489583 -25.140625 129.90234375 C-23 130 -23 130 -19 131 C-18.67 118.79 -18.34 106.58 -18 94 C-7.77 94 2.46 94 13 94 C13.84931693 98.24658465 14.06841927 101.36568953 13.92993164 105.6262207 C13.91057053 106.27068649 13.89120941 106.91515228 13.8712616 107.57914734 C13.80634989 109.69490377 13.73330794 111.81029506 13.66015625 113.92578125 C13.6133836 115.39835549 13.56712121 116.87094602 13.52134705 118.34355164 C13.39983717 122.20868391 13.27141736 126.07355656 13.14154053 129.93841553 C13.01009526 133.88654427 12.88520936 137.83487995 12.75976562 141.78320312 C12.51291722 149.52235239 12.258766 157.26123906 12 165 C13.32 164.34 14.64 163.68 16 163 C16.33 163.66 16.66 164.32 17 165 C15.02 165.66 13.04 166.32 11 167 C9.28865102 165.28865102 9.86780993 163.11760307 9.86108398 160.83374023 C9.86567627 160.06360596 9.87026855 159.29347168 9.875 158.5 C9.87898804 157.27615601 9.87898804 157.27615601 9.88305664 156.02758789 C10.02542933 136.01431296 10.74048177 115.97236055 12 96 C2.43 96 -7.14 96 -17 96 C-16.98839844 98.51496094 -16.97679687 101.02992188 -16.96484375 103.62109375 C-16.95705327 106.0469551 -16.95097646 108.47281507 -16.94506836 110.89868164 C-16.9400281 112.58944316 -16.93319595 114.28020029 -16.92456055 115.97094727 C-16.91248143 118.39600707 -16.90676877 120.82100944 -16.90234375 123.24609375 C-16.89718246 124.00651474 -16.89202118 124.76693573 -16.88670349 125.55039978 C-16.88650762 127.3673257 -16.93802723 129.18413127 -17 131 C-18 132 -18 132 -21.16015625 132.09765625 C-23.09181641 132.08025391 -23.09181641 132.08025391 -25.0625 132.0625 C-26.35285156 132.05347656 -27.64320312 132.04445312 -28.97265625 132.03515625 C-30.47119141 132.01775391 -30.47119141 132.01775391 -32 132 C-32.22632874 110.14012565 -32.06916818 88.34112843 -31.0625 66.5 C-31.01893372 65.52454224 -30.97536743 64.54908447 -30.93048096 63.54406738 C-30.80532294 60.78942616 -30.67226342 58.03531986 -30.53515625 55.28125 C-30.49655991 54.45401428 -30.45796356 53.62677856 -30.41819763 52.7744751 C-30.11675816 47.11675816 -30.11675816 47.11675816 -29 46 C-26.83519203 45.9010706 -24.66706215 45.870289 -22.5 45.875 C-21.3140625 45.87242188 -20.128125 45.86984375 -18.90625 45.8671875 C-16 46 -16 46 -15 47 C-14.89637956 49.51127188 -14.85959077 51.98857105 -14.875 54.5 C-14.87693359 55.25015381 -14.87886719 56.00030762 -14.88085938 56.77319336 C-14.94149704 64.87253233 -15.45678859 72.91973022 -16 81 C-6.76 81 2.48 81 12 81 C12.07347656 77.71289062 12.07347656 77.71289062 12.1484375 74.359375 C12.20248602 72.23121458 12.25977816 70.10316443 12.31738281 67.97509766 C12.35560666 66.49894464 12.39047103 65.02270057 12.421875 63.54638672 C12.46766986 61.42121906 12.52563837 59.29667458 12.5859375 57.171875 C12.63306885 55.2552002 12.63306885 55.2552002 12.68115234 53.29980469 C12.97346385 50.27462676 13.40581489 48.53950891 15 46 C16.97909398 45.97313447 18.95828971 45.95366625 20.9375 45.9375 C22.03964844 45.92589844 23.14179688 45.91429687 24.27734375 45.90234375 C27 46 27 46 28 47 C28.10173787 49.83368763 28.1395019 52.64242854 28.1328125 55.4765625 C28.13479141 56.77968384 28.13479141 56.77968384 28.1368103 58.10913086 C28.13873548 60.94778961 28.13237203 63.78635118 28.125 66.625 C28.12367065 68.06924347 28.12367065 68.06924347 28.12231445 69.54266357 C28.1097348 81.11521686 27.99147364 92.65581749 27.3581543 104.21362305 C26.79506577 114.80273101 26.90848277 125.39948916 27 136 C43.50489292 113.76278139 49.19915547 91.50487125 45.62109375 64.09765625 C42.08744954 43.94633388 29.97093923 25.51471051 14 13 C-8.62740888 -2.76803084 -32.17339399 -5.57241428 -59 -3 C-44.84415144 -12.43723237 -14.69359006 -6.57591289 0 0 Z " fill="#2F9F63" transform="translate(149,42)"/>
<path d="M0 0 C9.9 0 19.8 0 30 0 C30 7.26 30 14.52 30 22 C22.625 25.6875 22.625 25.6875 20.22021484 26.88549805 C17.08397911 28.44828088 13.95757195 30.02216155 10.8515625 31.64453125 C9.56378906 32.31548828 9.56378906 32.31548828 8.25 33 C7.14398438 33.5878125 7.14398438 33.5878125 6.015625 34.1875 C4 35 4 35 0 35 C0 23.45 0 11.9 0 0 Z " fill="#FBFCFC" transform="translate(306,43)"/>
<path d="M0 0 C4.77490234 -0.19335938 4.77490234 -0.19335938 6.80078125 1.546875 C8.43774123 4.8954446 8.29048776 7.54244061 8.1875 11.25 C8.16042969 12.51328125 8.13335937 13.7765625 8.10546875 15.078125 C8.07066406 16.04234375 8.03585937 17.0065625 8 18 C9.41681634 17.68817931 10.83344651 17.37551263 12.25 17.0625 C13.03890625 16.88847656 13.8278125 16.71445313 14.640625 16.53515625 C15.41921875 16.35855469 16.1978125 16.18195313 17 16 C18.07507813 15.84337891 18.07507813 15.84337891 19.171875 15.68359375 C21.14449965 15.14652712 21.14449965 15.14652712 22.1796875 13.265625 C23.08304299 10.77064316 23.64434758 8.359256 24.125 5.75 C24.29257812 4.85796875 24.46015625 3.9659375 24.6328125 3.046875 C24.75398438 2.37140625 24.87515625 1.6959375 25 1 C25.99 0.67 26.98 0.34 28 0 C30 1.3125 30 1.3125 32 4 C32.594986 7.68752948 32.27372808 11.28808136 32 15 C31.95069336 15.73847168 31.90138672 16.47694336 31.85058594 17.23779297 C31.67755903 19.68241599 31.4696908 22.12165276 31.25 24.5625 C31.1886084 25.36059082 31.1272168 26.15868164 31.06396484 26.98095703 C30.828125 29.25390625 30.828125 29.25390625 30 33 C27.921875 34.52734375 27.921875 34.52734375 26 35 C23.14206684 32.14206684 23.59200059 29.85334416 23.375 25.875 C23.30023438 24.59367187 23.22546875 23.31234375 23.1484375 21.9921875 C23.09945313 21.00476563 23.05046875 20.01734375 23 19 C22.41992188 19.2165625 21.83984375 19.433125 21.2421875 19.65625 C16.67446113 21.28435049 12.9219536 22.37861182 8 22 C8.33 22.99 8.66 23.98 9 25 C9.06740865 26.56118428 9.08514456 28.1250252 9.0625 29.6875 C9.05347656 30.49574219 9.04445313 31.30398437 9.03515625 32.13671875 C9.02355469 32.75160156 9.01195312 33.36648437 9 34 C5 34 5 34 3.375 32.8125 C0.26732192 28.71601525 -0.24503148 24.87069515 -0.1953125 19.82421875 C-0.18886719 18.66728516 -0.18242187 17.51035156 -0.17578125 16.31835938 C-0.15902344 15.12017578 -0.14226562 13.92199219 -0.125 12.6875 C-0.11597656 11.46998047 -0.10695313 10.25246094 -0.09765625 8.99804688 C-0.07413037 5.99849726 -0.04125653 2.99934956 0 0 Z " fill="#11A056" transform="translate(318,147)"/>
<path d="M0 0 C1.02772125 0.97148805 2.0301222 1.97075899 3 3 C6.21430214 4.78949275 9.48772781 6.43175262 12.7734375 8.0859375 C16.09610118 10.05700918 18.38777048 12.17387712 21 15 C21.825 15.804375 22.65 16.60875 23.5 17.4375 C40 34.35 40 34.35 40 42 C40.66 42 41.32 42 42 42 C42.495 45.465 42.495 45.465 43 49 C43.66 49 44.32 49 45 49 C45.45992316 50.81209723 45.91784036 52.62470361 46.375 54.4375 C46.63023437 55.44683594 46.88546875 56.45617187 47.1484375 57.49609375 C47.42945313 58.65238281 47.71046875 59.80867188 48 61 C48.17716553 61.67409912 48.35433105 62.34819824 48.53686523 63.04272461 C50.00441605 68.96353308 50.34827888 74.59974977 50.3125 80.6875 C50.30730347 82.12899414 50.30730347 82.12899414 50.30200195 83.59960938 C50.14666063 93.83668857 48.7062004 102.8020909 44 112 C43.67 113.175625 43.34 114.35125 43 115.5625 C41.3378137 121.2762654 37.80453713 125.83742857 34.4375 130.6875 C34.03853516 131.26822266 33.63957031 131.84894531 33.22851562 132.44726562 C31.5982972 134.80142079 30.02926796 136.97073204 28 139 C25.875 138.625 25.875 138.625 24 138 C23.97485039 134.10800178 23.95693295 130.2160365 23.94506836 126.32397461 C23.93770264 124.36635673 23.92498174 122.40876129 23.91210938 120.45117188 C23.89124252 112.25049686 24.23303794 104.16507637 25 96 C25.33 96 25.66 96 26 96 C26.495 115.8 26.495 115.8 27 136 C43.4258689 112.53447301 50.19080429 90.15735692 45.1875 61.625 C40.06413733 39.73091778 26.54647245 20.82176378 7.625 8.75 C-13.48567372 -3.69861534 -35.10369875 -5.29142615 -59 -3 C-44.84415144 -12.43723237 -14.69359006 -6.57591289 0 0 Z " fill="#249B5D" transform="translate(149,42)"/>
<path d="M0 0 C0.33 1.32 0.66 2.64 1 4 C0.175 4.268125 -0.65 4.53625 -1.5 4.8125 C-2.655 5.204375 -3.81 5.59625 -5 6 C-5.6496875 6.20625 -6.299375 6.4125 -6.96875 6.625 C-11.93203005 8.3048794 -15.316198 10.22848843 -19 14 C-20.41590372 17.15501165 -20.41590372 17.15501165 -21 20 C-13.62542635 18.52200612 -9.15419621 15.93853375 -3.8125 10.64453125 C-2 9 -2 9 0 9 C0.268125 8.4225 0.53625 7.845 0.8125 7.25 C2.01719859 4.9674132 3.40798115 3.0262058 5 1 C7.475 1.495 7.475 1.495 10 2 C10.02893932 5.62498334 10.04677792 9.24993713 10.0625 12.875 C10.07087891 13.90753906 10.07925781 14.94007813 10.08789062 16.00390625 C10.09111328 16.99003906 10.09433594 17.97617188 10.09765625 18.9921875 C10.10289307 19.90339355 10.10812988 20.81459961 10.11352539 21.75341797 C10 24 10 24 9 26 C7.68 25.67 6.36 25.34 5 25 C4.34 21.7 3.68 18.4 3 15 C2.34 15 1.68 15 1 15 C0.67 15.99 0.34 16.98 0 18 C-5.64387564 22.66956447 -11.68812862 26.43972015 -19.1875 25.8125 C-23 25 -23 25 -25 23.875 C-26.68666286 20.71250714 -26.46363337 18.53520446 -26 15 C-23.03100233 8.45109978 -18.83033293 4.06541943 -12.1875 1.25 C-8.01313533 -0.2209666 -4.39619381 -0.23551038 0 0 Z " fill="#26A160" transform="translate(503,156)"/>
<path d="M0 0 C1.32 0 2.64 0 4 0 C6.01840127 6.8048957 6.4528302 13.30077211 6.6875 20.375 C6.73455078 21.46683594 6.78160156 22.55867188 6.83007812 23.68359375 C7.13424359 31.73151282 7.13424359 31.73151282 6 34 C4.68 33.67 3.36 33.34 2 33 C1.67 31.68 1.34 30.36 1 29 C-0.0725 29.639375 -1.145 30.27875 -2.25 30.9375 C-7.34569155 33.81590461 -12.13226434 34.85546044 -18 34 C-21.06458538 31.95694308 -21.82153128 30.55920198 -22.9375 27.0625 C-23.01423529 23.30247068 -22.31593124 21.93351291 -20 19 C-16.24008885 15.50147305 -13.19839504 14.26230203 -8.1875 13.25 C-7.02605469 13.00765625 -5.86460937 12.7653125 -4.66796875 12.515625 C-3.78753906 12.34546875 -2.90710938 12.1753125 -2 12 C-1.90912109 10.82630859 -1.90912109 10.82630859 -1.81640625 9.62890625 C-1.73261719 8.61699219 -1.64882813 7.60507813 -1.5625 6.5625 C-1.48128906 5.55316406 -1.40007812 4.54382813 -1.31640625 3.50390625 C-1 1 -1 1 0 0 Z M-17 24 C-16.67958603 26.60280568 -16.67958603 26.60280568 -16 29 C-13.02254204 30.3100815 -11.69828119 29.91379462 -8.5 29 C-4.22982994 27.0256203 -2.90740628 24.19629383 -1 20 C-1 19.34 -1 18.68 -1 18 C-6.72816998 17.26088129 -12.97546176 19.97546176 -17 24 Z " fill="#309D63" transform="translate(467,147)"/>
<path d="M0 0 C0.763125 0.0825 1.52625 0.165 2.3125 0.25 C2.22871094 0.84167969 2.14492188 1.43335938 2.05859375 2.04296875 C1.50360576 6.34939457 1.08023348 10.00552644 2.3125 14.25 C8.79080156 14.83951568 8.79080156 14.83951568 14.75 12.8125 C16.97100706 9.17004843 18.15881876 5.3403244 19.3125 1.25 C20.6325 1.91 21.9525 2.57 23.3125 3.25 C23.77883783 12.96537153 24.11153177 21.83184201 18.02734375 29.96875 C15.22680196 32.77709274 12.57242809 33.60296491 8.75 33.8125 C5.48043469 33.619198 4.19434973 33.18248556 1.25 31.5 C-0.6875 29.25 -0.6875 29.25 -0.6875 25.25 C0.17875 25.58 1.045 25.91 1.9375 26.25 C5.32326391 27.25318931 7.80888964 27.56143203 11.3125 27.25 C15.07274616 24.74316923 15.70442086 22.38506066 17.3125 18.25 C16.4875 18.745 15.6625 19.24 14.8125 19.75 C10.72817229 21.50042616 7.68468104 22.03542174 3.3125 21.25 C-1.04795847 19.02863437 -3.82027421 16.81432971 -5.6875 12.25 C-6.22984259 8.47619951 -6.16588491 5.25712612 -4.5 1.75 C-2.6875 0.25 -2.6875 0.25 0 0 Z " fill="#299B5F" transform="translate(522.6875,155.75)"/>
<path d="M0 0 C1.84375 1.359375 1.84375 1.359375 3 3 C3.25136034 6.60283157 2.47963391 8.44076298 0.140625 11.16796875 C-1.85922798 13.17136757 -3.89352938 15.10945461 -6 17 C-5.15695312 17.25394531 -4.31390625 17.50789063 -3.4453125 17.76953125 C-2.34960938 18.11371094 -1.25390625 18.45789063 -0.125 18.8125 C0.96554687 19.14894531 2.05609375 19.48539063 3.1796875 19.83203125 C6 21 6 21 8 24 C7.67 24.66 7.34 25.32 7 26 C4.19689367 25.54368036 1.4072764 25.08938574 -1.3671875 24.48046875 C-8.6498147 23.15144331 -14.47357868 23.42600737 -21 27 C-23.875 26.6875 -23.875 26.6875 -26 26 C-25.78125 23.6875 -25.78125 23.6875 -25 21 C-23.03125 19.375 -23.03125 19.375 -20.5 18 C-19.60152344 17.49597656 -18.70304688 16.99195313 -17.77734375 16.47265625 C-16.00422122 15.53247736 -14.22601549 14.60178202 -12.44140625 13.68359375 C-8.01127261 11.36304756 -5.06471922 9.81767818 -3 5 C-10.68636026 6.35225523 -10.68636026 6.35225523 -18 9 C-18 9.66 -18 10.32 -18 11 C-19.75 13.1875 -19.75 13.1875 -22 15 C-24.25 14.75 -24.25 14.75 -26 14 C-25.71247474 10.64553862 -25.07362044 9.09146782 -22.9375 6.4375 C-15.90924054 0.60554002 -9.23934088 -1.51935828 0 0 Z " fill="#63B288" transform="translate(576,156)"/>
<path d="M0 0 C7.17163759 -0.48621272 7.17163759 -0.48621272 10.875 1.6875 C14.20609782 5.31251821 15.05150341 7.5579046 14.875 12.5 C13.67305102 17.30779593 11.67621538 19.74283846 7.75 22.6875 C1.60361286 25.62100295 -4.2782723 26.54207481 -11 26 C-15.08006708 24.46035204 -18.01455868 22.97088264 -20 19 C-20.81330175 14.30092323 -20.07458395 11.58575847 -17.4375 7.75 C-14.31481483 3.94814926 -11.73138696 2.31427416 -7 1 C-4.5625 1.3125 -4.5625 1.3125 -3 2 C-3.125 3.8125 -3.125 3.8125 -4 6 C-5.99107248 7.01765927 -7.99218823 8.01577854 -10 9 C-12.94675381 11.86920766 -13.93789433 13.17709988 -14.25 17.3125 C-14.1675 18.199375 -14.085 19.08625 -14 20 C-6.69090356 20.55984568 -0.40093903 19.80532889 6 16 C7.84436662 14.12531921 7.84436662 14.12531921 9 12 C8.77802187 9.3015411 8.77802187 9.3015411 8 7 C5.03 6.34 2.06 5.68 -1 5 C-0.67 3.35 -0.34 1.7 0 0 Z " fill="#2B9D61" transform="translate(374,156)"/>
<path d="M0 0 C-0.52725174 4.55423241 -0.52725174 4.55423241 -2.57421875 6.484375 C-3.27160156 6.90203125 -3.96898437 7.3196875 -4.6875 7.75 C-5.49832031 8.25015625 -6.30914062 8.7503125 -7.14453125 9.265625 C-8.08683594 9.83796875 -9.02914062 10.4103125 -10 11 C-11.69465338 12.1072001 -13.38919442 13.21458104 -15.08081055 14.32641602 C-24.06011545 20.19980269 -33.36878837 25.27525467 -43 30 C-43.33 29.34 -43.66 28.68 -44 28 C-43.01 28 -42.02 28 -41 28 C-42.97420135 25.47740939 -43.96745642 25.0070192 -47.1875 24.3125 C-48.115625 24.209375 -49.04375 24.10625 -50 24 C-47.95746979 21.95746979 -46.47521895 21.16502714 -43.87890625 19.96875 C-43.03440918 19.57494141 -42.18991211 19.18113281 -41.31982422 18.77539062 C-40.40990723 18.35451172 -39.49999023 17.93363281 -38.5625 17.5 C-31.0793255 13.99100666 -23.68371014 10.35996822 -16.375 6.5 C-15.57650635 6.07912109 -14.7780127 5.65824219 -13.95532227 5.22460938 C-3.74820523 -0.20260569 -3.74820523 -0.20260569 0 0 Z " fill="#F1F4F2" transform="translate(351,61)"/>
<path d="M0 0 C0.33 0 0.66 0 1 0 C1.02548786 7.22248577 1.04292452 14.44495981 1.05493164 21.66748047 C1.05994067 24.12126092 1.06674977 26.57503842 1.07543945 29.02880859 C1.08765586 32.56869234 1.09326276 36.10853641 1.09765625 39.6484375 C1.10281754 40.73426117 1.10797882 41.82008484 1.11329651 42.93881226 C1.11376238 49.35550636 0.78228009 55.63010793 0 62 C1.953125 61.96744792 3.90625 61.93489583 5.859375 61.90234375 C8 62 8 62 12 63 C12.33 50.79 12.66 38.58 13 26 C23.23 26 33.46 26 44 26 C44.84931693 30.24658465 45.06841927 33.36568953 44.92993164 37.6262207 C44.90088997 38.59291939 44.90088997 38.59291939 44.8712616 39.57914734 C44.80634989 41.69490377 44.73330794 43.81029506 44.66015625 45.92578125 C44.6133836 47.39835549 44.56712121 48.87094602 44.52134705 50.34355164 C44.39983717 54.20868391 44.27141736 58.07355656 44.14154053 61.93841553 C44.01009526 65.88654427 43.88520936 69.83487995 43.75976562 73.78320312 C43.51291722 81.52235239 43.258766 89.26123906 43 97 C44.98 96.01 44.98 96.01 47 95 C47.33 95.66 47.66 96.32 48 97 C45.03 97.99 45.03 97.99 42 99 C40.28865102 97.28865102 40.86780993 95.11760307 40.86108398 92.83374023 C40.86567627 92.06360596 40.87026855 91.29347168 40.875 90.5 C40.87765869 89.684104 40.88031738 88.86820801 40.88305664 88.02758789 C41.02542933 68.01431296 41.74048177 47.97236055 43 28 C33.43 28 23.86 28 14 28 C14.01160156 30.51496094 14.02320313 33.02992188 14.03515625 35.62109375 C14.04294673 38.0469551 14.04902354 40.47281507 14.05493164 42.89868164 C14.0599719 44.58944316 14.06680405 46.28020029 14.07543945 47.97094727 C14.08751857 50.39600707 14.09323123 52.82100944 14.09765625 55.24609375 C14.10281754 56.00651474 14.10797882 56.76693573 14.11329651 57.55039978 C14.11349238 59.3673257 14.06197277 61.18413127 14 63 C13 64 13 64 9.83984375 64.09765625 C8.55207031 64.08605469 7.26429687 64.07445312 5.9375 64.0625 C4.00197266 64.04896484 4.00197266 64.04896484 2.02734375 64.03515625 C1.02832031 64.02355469 0.02929688 64.01195312 -1 64 C-1.20638953 19.79771384 -1.20638953 19.79771384 0 0 Z " fill="#4CAA78" transform="translate(118,110)"/>
<path d="M0 0 C13.34149312 11.32005477 19.6380736 32.09185948 21.6875 48.875 C23.7703175 75.73466734 18.46116624 102.049207 1.1875 123.25 C-0.20172648 124.83913339 -1.59718999 126.42284458 -3 128 C-3.66902344 128.86496094 -4.33804688 129.72992188 -5.02734375 130.62109375 C-7.67786997 133.81747092 -10.56632829 135.68887481 -14 138 C-13.66089854 134.92159459 -13.32619319 133.35079828 -11.1875 131.05078125 C-10.1046875 130.19033203 -10.1046875 130.19033203 -9 129.3125 C-6.03807329 127.03120707 -6.03807329 127.03120707 -4 124 C-3.34 124 -2.68 124 -2 124 C-1.7525 123.484375 -1.505 122.96875 -1.25 122.4375 C3.44827586 113.27586207 3.44827586 113.27586207 6 112 C8.05825707 108.18096832 9.62980106 104.11059683 11 100 C11.83061486 97.50815541 12.78220874 95.40359964 13.9375 93.0625 C23.00167264 72.69357272 20.05858528 47.41183969 13 27 C12.67 26.01 12.34 25.02 12 24 C12.33 23.34 12.66 22.68 13 22 C12.34 22 11.68 22 11 22 C10.18162558 20.58671871 9.37053781 19.16921654 8.5625 17.75 C8.11003906 16.96109375 7.65757812 16.1721875 7.19140625 15.359375 C6.10688398 13.21166532 5.46851284 11.34794939 5 9 C4.34 9 3.68 9 3 9 C0 3.375 0 3.375 0 0 Z " fill="#279A5E" transform="translate(189,61)"/>
<path d="M0 0 C1.9375 0.1875 1.9375 0.1875 4 1 C6.61989629 4.67721158 6.40758759 8.90489586 6.5625 13.25 C6.79783145 18.88794067 7.23439146 24.40662855 8 30 C9.98 30 11.96 30 14 30 C14.66 28.35 15.32 26.7 16 25 C17.32 25.33 18.64 25.66 20 26 C20 27.98 20 29.96 20 32 C15.09573204 34.40209043 11.58228587 35.62025399 6 35 C3.21266033 33.76118237 1.55106064 32.84355313 -0.12231445 30.28198242 C-1.25685298 27.33218225 -1.24222594 24.89681672 -1.23046875 21.73828125 C-1.22853516 20.53751953 -1.22660156 19.33675781 -1.22460938 18.09960938 C-1.21236328 16.84986328 -1.20011719 15.60011719 -1.1875 14.3125 C-1.18685547 13.05115234 -1.18621094 11.78980469 -1.18554688 10.49023438 C-1.14023184 1.14023184 -1.14023184 1.14023184 0 0 Z " fill="#44AE77" transform="translate(394,147)"/>
<path d="M0 0 C2.5 0.125 2.5 0.125 3.5 1.125 C3.58651611 2.54070123 3.60704904 3.960595 3.59765625 5.37890625 C3.59443359 6.23291016 3.59121094 7.08691406 3.58789062 7.96679688 C3.57951172 8.86462891 3.57113281 9.76246094 3.5625 10.6875 C3.55798828 11.58919922 3.55347656 12.49089844 3.54882812 13.41992188 C3.53700244 15.65497589 3.51906638 17.88999602 3.5 20.125 C6.14 19.465 8.78 18.805 11.5 18.125 C12.16 19.445 12.82 20.765 13.5 22.125 C9.94685446 25.5300978 6.27216636 26.125 1.5 26.125 C-1.22235915 25.33694867 -2.10438934 24.75938996 -3.59375 22.37109375 C-4.66569898 19.71432365 -4.7001052 17.72899752 -4.625 14.875 C-4.60695313 13.98296875 -4.58890625 13.0909375 -4.5703125 12.171875 C-4.53550781 11.15867188 -4.53550781 11.15867188 -4.5 10.125 C-6.81 9.465 -9.12 8.805 -11.5 8.125 C-11.17 6.475 -10.84 4.825 -10.5 3.125 C-9.365625 2.815625 -8.23125 2.50625 -7.0625 2.1875 C-3.96765935 1.26447735 -2.99210763 0.14960538 0 0 Z " fill="#339F65" transform="translate(428.5,155.875)"/>
<path d="M0 0 C0.33 0 0.66 0 1 0 C1.76239682 28.78341212 1.76239682 28.78341212 -5 42 C-5.33 43.175625 -5.66 44.35125 -6 45.5625 C-7.6621863 51.2762654 -11.19546287 55.83742857 -14.5625 60.6875 C-14.96146484 61.26822266 -15.36042969 61.84894531 -15.77148438 62.44726562 C-17.4017028 64.80142079 -18.97073204 66.97073204 -21 69 C-23.125 68.625 -23.125 68.625 -25 68 C-25.02514961 64.10800178 -25.04306705 60.2160365 -25.05493164 56.32397461 C-25.06229736 54.36635673 -25.07501826 52.40876129 -25.08789062 50.45117188 C-25.10875748 42.25049686 -24.76696206 34.16507637 -24 26 C-23.67 26 -23.34 26 -23 26 C-22.67 39.2 -22.34 52.4 -22 66 C-15.97270572 57.44410118 -15.97270572 57.44410118 -10.75 48.5 C-10.26273438 47.62021484 -10.26273438 47.62021484 -9.765625 46.72265625 C-4.46472383 36.78346655 -3.30527549 26.50962827 -2.375 15.4375 C-2.13864202 12.72728286 -1.89462158 10.01795659 -1.6484375 7.30859375 C-1.54708496 6.12064209 -1.44573242 4.93269043 -1.34130859 3.70874023 C-1 1 -1 1 0 0 Z " fill="#239A5B" transform="translate(198,112)"/>
<path d="M0 0 C1.61068359 0.02707031 1.61068359 0.02707031 3.25390625 0.0546875 C29.5946824 1.27317238 52.31169791 17.84621627 70 36 C69.505 36.99 69.505 36.99 69 38 C63.49260293 35.01027016 59.79470128 31.58940255 57 26 C55.515 25.505 55.515 25.505 54 25 C53 24 52 23 51 22 C48.90010348 20.82425289 48.90010348 20.82425289 47 20 C47 19.34 47 18.68 47 18 C46.401875 17.855625 45.80375 17.71125 45.1875 17.5625 C43.43849596 17.1127561 41.71322977 16.57107659 40 16 C40 15.34 40 14.68 40 14 C39.443125 13.82984375 38.88625 13.6596875 38.3125 13.484375 C37.549375 13.24203125 36.78625 12.9996875 36 12.75 C35.2575 12.51796875 34.515 12.2859375 33.75 12.046875 C31.42935903 11.16344918 29.35905201 10.17548644 27.1640625 9.03125 C9.30808096 -0.00922596 -14.70544989 1.42320341 -34 4 C-24.87690628 -2.08206248 -10.61604866 -0.29762265 0 0 Z " fill="#2C9C61" transform="translate(119,23)"/>
<path d="M0 0 C-0.33 1.32 -0.66 2.64 -1 4 C-0.15695312 4.25394531 0.68609375 4.50789062 1.5546875 4.76953125 C2.65039062 5.11371094 3.74609375 5.45789063 4.875 5.8125 C5.96554687 6.14894531 7.05609375 6.48539063 8.1796875 6.83203125 C11 8 11 8 13 11 C12.67 11.66 12.34 12.32 12 13 C9.19689367 12.54368036 6.4072764 12.08938574 3.6328125 11.48046875 C-3.6498147 10.15144331 -9.47357868 10.42600737 -16 14 C-18.875 13.6875 -18.875 13.6875 -21 13 C-20.7052863 9.7854376 -20.4695663 8.39850167 -17.9609375 6.26953125 C-6.83378016 0 -6.83378016 0 0 0 Z " fill="#299C60" transform="translate(571,169)"/>
<path d="M0 0 C1.32 0 2.64 0 4 0 C6.01840127 6.8048957 6.4528302 13.30077211 6.6875 20.375 C6.73455078 21.46683594 6.78160156 22.55867188 6.83007812 23.68359375 C7.13424359 31.73151282 7.13424359 31.73151282 6 34 C4.68 33.67 3.36 33.34 2 33 C1.87625 32.195625 1.7525 31.39125 1.625 30.5625 C1.41875 29.716875 1.2125 28.87125 1 28 C0.34 27.67 -0.32 27.34 -1 27 C0.32 27 1.64 27 3 27 C3 19.74 3 12.48 3 5 C2.34 5 1.68 5 1 5 C1 7.97 1 10.94 1 14 C0.01 14.33 -0.98 14.66 -2 15 C-1.34 15.33 -0.68 15.66 0 16 C0.3125 18.6875 0.3125 18.6875 0 22 C-2.5 24.875 -2.5 24.875 -5 27 C-4.71125 26.443125 -4.4225 25.88625 -4.125 25.3125 C-2.9586747 22.91505355 -1.9660119 20.48403061 -1 18 C-1.61488281 18.01160156 -2.22976563 18.02320313 -2.86328125 18.03515625 C-3.67152344 18.04417969 -4.47976563 18.05320313 -5.3125 18.0625 C-6.51326172 18.07990234 -6.51326172 18.07990234 -7.73828125 18.09765625 C-10 18 -10 18 -13 17 C-17.8413965 19.52156068 -19.94418499 21.97467443 -22 27 C-23 24 -23 24 -21.875 21.5625 C-18.10712912 16.41307647 -14.38516278 14.50205309 -8.1875 13.25 C-7.02605469 13.00765625 -5.86460937 12.7653125 -4.66796875 12.515625 C-3.78753906 12.34546875 -2.90710938 12.1753125 -2 12 C-1.90912109 10.82630859 -1.90912109 10.82630859 -1.81640625 9.62890625 C-1.73261719 8.61699219 -1.64882813 7.60507813 -1.5625 6.5625 C-1.48128906 5.55316406 -1.40007812 4.54382813 -1.31640625 3.50390625 C-1 1 -1 1 0 0 Z " fill="#4BA978" transform="translate(467,147)"/>
<path d="M0 0 C0 0.99 0 1.98 0 3 C-3.45674428 6.31271327 -7.6581586 7.8290793 -12 10 C-12.33 28.15 -12.66 46.3 -13 65 C-6.4 65.33 0.2 65.66 7 66 C7 55.77 7 45.54 7 35 C7.99 34.505 7.99 34.505 9 34 C8.67 44.89 8.34 55.78 8 67 C2.5859375 67.0309375 2.5859375 67.0309375 -2.9375 67.0625 C-4.07695068 67.071604 -5.21640137 67.08070801 -6.39038086 67.09008789 C-7.28120361 67.09258545 -8.17202637 67.09508301 -9.08984375 67.09765625 C-10.46450806 67.10551147 -10.46450806 67.10551147 -11.86694336 67.11352539 C-14 67 -14 67 -15 66 C-15.12499969 64.27819372 -15.18070557 62.55130534 -15.20874023 60.82519531 C-15.22803085 59.72024719 -15.24732147 58.61529907 -15.26719666 57.47686768 C-15.32469354 52.40908826 -15.3742254 47.34145575 -15.4050293 42.2734375 C-15.42282127 39.59781757 -15.45759732 36.92325598 -15.50756836 34.24804688 C-15.57439145 30.3994172 -15.60200304 26.55225213 -15.62109375 22.703125 C-15.64892441 21.50713684 -15.67675507 20.31114868 -15.70542908 19.07891846 C-15.68532036 10.97922973 -15.68532036 10.97922973 -13.71191406 8.15950012 C-12.12084961 6.80493164 -12.12084961 6.80493164 -9 5 C-8.15695312 4.47792969 -7.31390625 3.95585938 -6.4453125 3.41796875 C-5.67960937 3.01191406 -4.91390625 2.60585937 -4.125 2.1875 C-3.34382813 1.76855469 -2.56265625 1.34960938 -1.7578125 0.91796875 C-1.17773438 0.61503906 -0.59765625 0.31210938 0 0 Z " fill="#DEE9E4" transform="translate(360,70)"/>
<path d="M0 0 C0 1.32 0 2.64 0 4 C-1.79296875 5.52734375 -1.79296875 5.52734375 -4.1875 6.9375 C-7.11177873 8.73423552 -9.53859978 10.36327334 -11.8125 12.9375 C-12.534375 13.618125 -13.25625 14.29875 -14 15 C-16 14.625 -16 14.625 -18 14 C-19.67419438 14.9873454 -21.34051852 15.98812105 -23 17 C-25.6875 17.3125 -25.6875 17.3125 -28 17 C-28.66 16.34 -29.32 15.68 -30 15 C-30 14.01 -30 13.02 -30 12 C-27.69 11.34 -25.38 10.68 -23 10 C-23.99 9.67 -24.98 9.34 -26 9 C-25.67 8.01 -25.34 7.02 -25 6 C-24.39414062 6.06960937 -23.78828125 6.13921875 -23.1640625 6.2109375 C-16.46349322 6.64389736 -12.76503729 5.19751423 -7.32421875 1.3125 C-4.65424921 -0.19524751 -3.01738563 -0.25634427 0 0 Z " fill="#57AD80" transform="translate(384,43)"/>
<path d="M0 0 C1.32 0 2.64 0 4 0 C5.07198754 6.64632277 4.95806423 12.83093711 4.3125 19.5 C4.24691895 20.30163574 4.18133789 21.10327148 4.11376953 21.92919922 C3.86328125 24.21875 3.86328125 24.21875 3 28 C0.91796875 29.53125 0.91796875 29.53125 -1 30 C-3 28 -3 28 -3.16015625 24.375 C-3.1375332 22.91647885 -3.10456029 21.45809008 -3.0625 20 C-2.70145872 14.84898542 -2.70145872 14.84898542 -4 10 C-3.67 9.01 -3.34 8.02 -3 7 C-2.34 7 -1.68 7 -1 7 C-0.67 4.69 -0.34 2.38 0 0 Z " fill="#09A253" transform="translate(345,152)"/>
<path d="M0 0 C0.33 1.32 0.66 2.64 1 4 C0.175 4.268125 -0.65 4.53625 -1.5 4.8125 C-2.655 5.204375 -3.81 5.59625 -5 6 C-5.6496875 6.20625 -6.299375 6.4125 -6.96875 6.625 C-11.93203005 8.3048794 -15.316198 10.22848843 -19 14 C-20.41590372 17.15501165 -20.41590372 17.15501165 -21 20 C-19.35 20 -17.7 20 -16 20 C-16 20.33 -16 20.66 -16 21 C-17.98 21.33 -19.96 21.66 -22 22 C-23.15837626 17.94568308 -22.83691257 15.78187881 -21 12 C-21.66 12 -22.32 12 -23 12 C-22.75873283 8.74289315 -21.79730672 7.79730672 -19.4375 5.4375 C-13.37688084 0.7510069 -7.52986901 -0.40338584 0 0 Z " fill="#5CB184" transform="translate(503,156)"/>
<path d="M0 0 C1.9375 0.25 1.9375 0.25 4 1 C6.20914 4.31371 6.22481553 5.3446021 6.125 9.1875 C6.10695313 10.08855469 6.08890625 10.98960937 6.0703125 11.91796875 C6.04710937 12.60503906 6.02390625 13.29210937 6 14 C5.67 14 5.34 14 5 14 C5 11.03 5 8.06 5 5 C3.68 5 2.36 5 1 5 C0.67 7.31 0.34 9.62 0 12 C-0.66 12 -1.32 12 -2 12 C-1.7525 12.9590625 -1.7525 12.9590625 -1.5 13.9375 C-0.84067485 17.97586652 -0.91996221 21.91807258 -1 26 C-1.33 26 -1.66 26 -2 26 C-2.33 23.69 -2.66 21.38 -3 19 C-3.58007812 19.2165625 -4.16015625 19.433125 -4.7578125 19.65625 C-9.32553887 21.28435049 -13.0780464 22.37861182 -18 22 C-17.34 21.34 -16.68 20.68 -16 20 C-16.99 19.67 -17.98 19.34 -19 19 C-19.33 13.72 -19.66 8.44 -20 3 C-19.01 3.495 -19.01 3.495 -18 4 C-18 8.62 -18 13.24 -18 18 C-16.5975 17.690625 -15.195 17.38125 -13.75 17.0625 C-12.96109375 16.88847656 -12.1721875 16.71445313 -11.359375 16.53515625 C-10.19148438 16.27025391 -10.19148438 16.27025391 -9 16 C-7.92492187 15.84337891 -7.92492187 15.84337891 -6.828125 15.68359375 C-4.85478523 15.14612042 -4.85478523 15.14612042 -3.81640625 13.26171875 C-2.92247982 10.78524315 -2.39320599 8.40504582 -1.9375 5.8125 C-1.10320285 1.10320285 -1.10320285 1.10320285 0 0 Z " fill="#69B68D" transform="translate(344,147)"/>
<path d="M0 0 C0.763125 0.0825 1.52625 0.165 2.3125 0.25 C2.22871094 0.84167969 2.14492188 1.43335938 2.05859375 2.04296875 C1.95675781 2.83316406 1.85492187 3.62335938 1.75 4.4375 C1.64558594 5.21480469 1.54117188 5.99210938 1.43359375 6.79296875 C1.19025888 9.69676607 1.19025888 9.69676607 2.3125 14.25 C6.2725 14.25 10.2325 14.25 14.3125 14.25 C13.9825 14.91 13.6525 15.57 13.3125 16.25 C10.66389573 16.84355614 8.02052678 16.99209269 5.3125 17.25 C5.3125 18.57 5.3125 19.89 5.3125 21.25 C0.34820389 20.00892597 -1.82621828 18.48893588 -4.6875 14.25 C-6.28287236 11.05925528 -6.06485822 7.72169561 -5.6875 4.25 C-4.15169519 1.01672672 -3.59306259 0.33423838 0 0 Z " fill="#5FB487" transform="translate(522.6875,155.75)"/>
<path d="M0 0 C1 1 1 1 1.09765625 4.59765625 C1.0909822 6.08596867 1.07902183 7.57426432 1.0625 9.0625 C1.05798828 9.82111328 1.05347656 10.57972656 1.04882812 11.36132812 C1.0370068 13.24091871 1.01907078 15.12046899 1 17 C3.31 17 5.62 17 8 17 C7.67 17.66 7.34 18.32 7 19 C-0.15822983 20.50091916 -0.15822983 20.50091916 -2.74609375 18.9609375 C-4.66860739 15.95438969 -4.28432568 13.33049968 -4.1875 9.8125 C-4.14689453 7.90404297 -4.14689453 7.90404297 -4.10546875 5.95703125 C-4.05326172 4.49330078 -4.05326172 4.49330078 -4 3 C-6.31 3 -8.62 3 -11 3 C-11 2.34 -11 1.68 -11 1 C-3.46153846 -1.46449704 -3.46153846 -1.46449704 0 0 Z " fill="#05A452" transform="translate(431,160)"/>
<path d="M0 0 C0.33 0 0.66 0 1 0 C0.85888117 2.75031587 0.71228835 5.50015418 0.5625 8.25 C0.52318359 9.02730469 0.48386719 9.80460938 0.44335938 10.60546875 C0.40146484 11.35957031 0.35957031 12.11367187 0.31640625 12.890625 C0.27974854 13.58188477 0.24309082 14.27314453 0.20532227 14.98535156 C-0.00675524 17.06628329 -0.44508677 18.98572422 -1 21 C-2.32 21.33 -3.64 21.66 -5 22 C-4.34 19.03 -3.68 16.06 -3 13 C-3.86625 13.495 -4.7325 13.99 -5.625 14.5 C-9.10749623 16.0477761 -11.24759458 16.26802896 -15 16 C-15.5625 14.0625 -15.5625 14.0625 -16 12 C-15 11 -15 11 -11.125 10.75 C-8.95910812 10.57944979 -8.95910812 10.57944979 -7 10 C-5.08255407 7.55690423 -5.08255407 7.55690423 -4 5 C-3.34 5 -2.68 5 -2 5 C-1.855625 4.360625 -1.71125 3.72125 -1.5625 3.0625 C-1 1 -1 1 0 0 Z " fill="#2A9D61" transform="translate(543,161)"/>
<path d="M0 0 C0.33 0 0.66 0 1 0 C1.06058594 1.134375 1.12117188 2.26875 1.18359375 3.4375 C1.26808494 4.95834135 1.35272851 6.47917425 1.4375 8 C1.47681641 8.74378906 1.51613281 9.48757812 1.55664062 10.25390625 C1.83661727 15.20733918 2.33510571 20.08313469 3 25 C4.98 25 6.96 25 9 25 C9.66 23.35 10.32 21.7 11 20 C12.32 20.33 13.64 20.66 15 21 C15 22.98 15 24.96 15 27 C10.05504256 29.42201997 6.6285376 30.44145393 1 30 C0.34 29.67 -0.32 29.34 -1 29 C-1 28.34 -1 27.68 -1 27 C-0.34 27 0.32 27 1 27 C0.67 26.34 0.34 25.68 0 25 C-0.084915 23.1136088 -0.107193 21.22421485 -0.09765625 19.3359375 C-0.09443359 18.21445313 -0.09121094 17.09296875 -0.08789062 15.9375 C-0.07951172 14.761875 -0.07113281 13.58625 -0.0625 12.375 C-0.05798828 11.19164062 -0.05347656 10.00828125 -0.04882812 8.7890625 C-0.03701467 5.85932493 -0.02054258 2.92968728 0 0 Z " fill="#45A673" transform="translate(399,152)"/>
<path d="M0 0 C1.03304067 0.96582968 2.03804596 1.96334942 3 3 C5.09989652 4.17574711 5.09989652 4.17574711 7 5 C6.67 5.99 6.34 6.98 6 8 C5.09378906 7.52949219 4.18757813 7.05898438 3.25390625 6.57421875 C-17.16343242 -3.91689278 -36.29818675 -5.1768862 -59 -3 C-44.84415144 -12.43723237 -14.69359006 -6.57591289 0 0 Z " fill="#329F65" transform="translate(149,42)"/>
<path d="M0 0 C11.74987874 9.96959408 19.10374944 29.04305739 21 44 C20.56640625 46.3671875 20.56640625 46.3671875 20 48 C17.67484017 44.51226026 16.92635349 41.14161083 16 37.125 C14.70624359 31.52920399 14.70624359 31.52920399 12.8125 26.1171875 C12.544375 25.41851562 12.27625 24.71984375 12 24 C12.33 23.34 12.66 22.68 13 22 C12.34 22 11.68 22 11 22 C10.18162558 20.58671871 9.37053781 19.16921654 8.5625 17.75 C7.88380859 16.56664062 7.88380859 16.56664062 7.19140625 15.359375 C6.10688398 13.21166532 5.46851284 11.34794939 5 9 C4.34 9 3.68 9 3 9 C0 3.375 0 3.375 0 0 Z " fill="#309F65" transform="translate(189,61)"/>
<path d="M0 0 C7.17163759 -0.48621272 7.17163759 -0.48621272 10.875 1.6875 C13.17787165 4.19356621 14.22999858 5.68899388 15 9 C14.74509256 13.92821046 14.56315478 15.43684522 11 19 C11.66 15.37 12.32 11.74 13 8 C12.34 8 11.68 8 11 8 C10.67 9.32 10.34 10.64 10 12 C9.855625 11.21625 9.71125 10.4325 9.5625 9.625 C8.28463143 6.84843237 8.28463143 6.84843237 5.86328125 6.22265625 C3.58025309 5.73164391 1.31304073 5.31887599 -1 5 C-0.67 3.35 -0.34 1.7 0 0 Z " fill="#75BB95" transform="translate(374,156)"/>
<path d="M0 0 C0.33 0 0.66 0 1 0 C1.05389087 1.95803507 1.09274217 3.91648909 1.125 5.875 C1.14820313 6.96554688 1.17140625 8.05609375 1.1953125 9.1796875 C1 12 1 12 -1 14 C-0.34 14.33 0.32 14.66 1 15 C1.3125 17.6875 1.3125 17.6875 1 21 C-1.5 23.875 -1.5 23.875 -4 26 C-3.71125 25.443125 -3.4225 24.88625 -3.125 24.3125 C-1.9586747 21.91505355 -0.9660119 19.48403061 0 17 C-0.61488281 17.01160156 -1.22976563 17.02320313 -1.86328125 17.03515625 C-2.67152344 17.04417969 -3.47976563 17.05320313 -4.3125 17.0625 C-5.51326172 17.07990234 -5.51326172 17.07990234 -6.73828125 17.09765625 C-9 17 -9 17 -12 16 C-16.8413965 18.52156068 -18.94418499 20.97467443 -21 26 C-22 23 -22 23 -20.875 20.5625 C-17.10712912 15.41307647 -13.38516278 13.50205309 -7.1875 12.25 C-6.02605469 12.00765625 -4.86460937 11.7653125 -3.66796875 11.515625 C-2.78753906 11.34546875 -1.90710938 11.1753125 -1 11 C-0.67 7.37 -0.34 3.74 0 0 Z " fill="#62B287" transform="translate(466,148)"/>
<path d="M0 0 C0.66 0.33 1.32 0.66 2 1 C-1.18762365 3.12508244 -3.26512223 3.5020163 -7 4 C-7 4.99 -7 5.98 -7 7 C-5.02 6.67 -3.04 6.34 -1 6 C-0.01 7.485 -0.01 7.485 1 9 C0.01 9 -0.98 9 -2 9 C-5.43156089 9.51473413 -7.04076956 10.0271797 -10 12 C-12.5625 12.25 -12.5625 12.25 -15 12 C-15.66 11.34 -16.32 10.68 -17 10 C-17 9.01 -17 8.02 -17 7 C-14.69 6.34 -12.38 5.68 -10 5 C-10.99 4.67 -11.98 4.34 -13 4 C-12.67 3.01 -12.34 2.02 -12 1 C-11.30132812 1.01160156 -10.60265625 1.02320313 -9.8828125 1.03515625 C-8.97273438 1.04417969 -8.06265625 1.05320313 -7.125 1.0625 C-6.22007812 1.07410156 -5.31515625 1.08570313 -4.3828125 1.09765625 C-1.9831415 1.16249257 -1.9831415 1.16249257 0 0 Z " fill="#ADD3BF" transform="translate(371,48)"/>
<path d="M0 0 C0.66 0 1.32 0 2 0 C3.06309567 5.17317421 3.11693938 10.12369336 3.0625 15.375 C3.05798828 16.20644531 3.05347656 17.03789062 3.04882812 17.89453125 C3.03713164 19.92971897 3.01919935 21.96486923 3 24 C2.67 23.34 2.34 22.68 2 22 C0.35 22 -1.3 22 -3 22 C-2.34 18.37 -1.68 14.74 -1 11 C-2.32 10.67 -3.64 10.34 -5 10 C-3.35 9.67 -1.7 9.34 0 9 C0 6.03 0 3.06 0 0 Z " fill="#09A153" transform="translate(468,152)"/>
<path d="M0 0 C0.33 0 0.66 0 1 0 C2.22422706 17.06384179 1.75912332 33.93263553 1 51 C2.32 50.34 3.64 49.68 5 49 C5.33 49.66 5.66 50.32 6 51 C4.02 51.66 2.04 52.32 0 53 C-1.71206738 51.28793262 -1.13222585 49.11419369 -1.13867188 46.8293457 C-1.13416016 46.06066162 -1.12964844 45.29197754 -1.125 44.5 C-1.12306641 43.69715576 -1.12113281 42.89431152 -1.11914062 42.06713867 C-1.02716123 28.04155776 -0.47170344 14.01686844 0 0 Z " fill="#2BA162" transform="translate(160,156)"/>
<path d="M0 0 C1.65 0 3.3 0 5 0 C5 0.99 5 1.98 5 3 C3.68 2.34 2.36 1.68 1 1 C1.27795291 5.08438847 1.57472795 9.1671965 1.875 13.25 C1.95363281 14.40886719 2.03226562 15.56773437 2.11328125 16.76171875 C2.19707031 17.87675781 2.28085937 18.99179688 2.3671875 20.140625 C2.47716064 21.68024902 2.47716064 21.68024902 2.58935547 23.25097656 C2.99215492 25.94748184 3.53715131 27.71392876 5 30 C5.66 30.33 6.32 30.66 7 31 C7 28.03 7 25.06 7 22 C9.13586678 25.20380017 9.23132175 26.01939967 9.125 29.6875 C9.10695313 30.49574219 9.08890625 31.30398437 9.0703125 32.13671875 C9.03550781 33.05904297 9.03550781 33.05904297 9 34 C5 34 5 34 3.375 32.8125 C0.26732192 28.71601525 -0.24503148 24.87069515 -0.1953125 19.82421875 C-0.18886719 18.66728516 -0.18242187 17.51035156 -0.17578125 16.31835938 C-0.15902344 15.12017578 -0.14226562 13.92199219 -0.125 12.6875 C-0.11597656 11.46998047 -0.10695313 10.25246094 -0.09765625 8.99804688 C-0.07413037 5.99849726 -0.04125653 2.99934956 0 0 Z " fill="#5EB185" transform="translate(318,147)"/>
<path d="M0 0 C-0.125 1.8125 -0.125 1.8125 -1 4 C-2.99107248 5.01765927 -4.99218823 6.01577854 -7 7 C-9.94675381 9.86920766 -10.93789433 11.17709988 -11.25 15.3125 C-11.1675 16.199375 -11.085 17.08625 -11 18 C-10.01 18.33 -9.02 18.66 -8 19 C-9.65 18.67 -11.3 18.34 -13 18 C-13.75 15.375 -13.75 15.375 -14 12 C-12.0625 8.625 -12.0625 8.625 -10 6 C-11.32 6.33 -12.64 6.66 -14 7 C-12.60440273 3.6273066 -11.1078412 1.91954898 -8 0 C-4.97458098 -1.13453213 -3.05926331 -0.98333463 0 0 Z " fill="#4CAB79" transform="translate(371,158)"/>
<path d="M0 0 C1.98 0.66 3.96 1.32 6 2 C6 2.66 6 3.32 6 4 C12.15021913 7.14053743 17.38760577 7.81635296 24.20703125 6.609375 C26.21170785 6.16237043 26.21170785 6.16237043 27 4 C30.0625 3.375 30.0625 3.375 33 3 C29.7405796 7.02634285 25.42914355 8.65404234 20.44921875 9.36328125 C13.18160465 9.72306413 8.15885611 7.7407369 2 4 C1.67 5.32 1.34 6.64 1 8 C-6.26 8 -13.52 8 -21 8 C-21 7.67 -21 7.34 -21 7 C-14.07 7 -7.14 7 0 7 C0 4.69 0 2.38 0 0 Z " fill="#CFE2D8" transform="translate(413,129)"/>
<path d="M0 0 C0.66 0 1.32 0 2 0 C2 0.99 2 1.98 2 3 C2.66 3 3.32 3 4 3 C4 3.66 4 4.32 4 5 C4.66 5 5.32 5 6 5 C6.33 7.31 6.66 9.62 7 12 C7.66 12 8.32 12 9 12 C11.66444297 21.75286673 13.96844483 30.93905974 12 41 C11.67 41 11.34 41 11 41 C10.90203125 39.83984375 10.8040625 38.6796875 10.703125 37.484375 C9.53342303 24.82279275 6.95150077 14.19153911 0.953125 2.86328125 C0 1 0 1 0 0 Z " fill="#2D9F63" transform="translate(185,79)"/>
<path d="M0 0 C1.051875 -0.02578125 2.10375 -0.0515625 3.1875 -0.078125 C6 0.25 6 0.25 7.8671875 1.58984375 C9 3.25 9 3.25 9.125 6.0625 C7.56028884 10.49584828 4.70971613 12.5185641 1 15.25 C1 14.59 1 13.93 1 13.25 C-1.31 13.91 -3.62 14.57 -6 15.25 C-4.04248277 13.22257144 -2.1487059 11.35934257 0.125 9.6875 C2.25847264 8.21201629 2.25847264 8.21201629 4 5.25 C4 5.91 4 6.57 4 7.25 C4.66 6.92 5.32 6.59 6 6.25 C6.65213292 4.22536745 6.65213292 4.22536745 7 2.25 C5.10424749 2.22278824 3.20838021 2.20350864 1.3125 2.1875 C0.25675781 2.17589844 -0.79898438 2.16429687 -1.88671875 2.15234375 C-4.72410262 2.24134575 -7.2438919 2.60060162 -10 3.25 C-8.05711726 -0.63576547 -3.87274339 0.05695211 0 0 Z " fill="#6FB891" transform="translate(570,155.75)"/>
<path d="M0 0 C0.66 0.99 1.32 1.98 2 3 C1.36191406 3.23074219 0.72382813 3.46148437 0.06640625 3.69921875 C-5.08702853 5.49480714 -5.08702853 5.49480714 -8.1875 9.625 C-8.24366663 12.18917496 -8.24366663 12.18917496 -6 14 C-6.99 14.33 -7.98 14.66 -9 15 C-9.66 14.01 -10.32 13.02 -11 12 C-11.66 12.99 -12.32 13.98 -13 15 C-13.33 14.67 -13.66 14.34 -14 14 C-13.64833837 6.84954683 -13.64833837 6.84954683 -11.1875 3.625 C-7.4444108 0.84441945 -4.7787153 -0.62877833 0 0 Z " fill="#3EA670" transform="translate(459,163)"/>
<path d="M0 0 C0.66 0 1.32 0 2 0 C1.84765625 2.78515625 1.84765625 2.78515625 1 6 C-3.12760385 9.26906225 -8.2635893 11.83805764 -13.57421875 12.15234375 C-15.75 11.875 -15.75 11.875 -19 11 C-18.67 10.34 -18.34 9.68 -18 9 C-16.35 9 -14.7 9 -13 9 C-13 8.34 -13 7.68 -13 7 C-12.09507812 6.74476563 -12.09507812 6.74476563 -11.171875 6.484375 C-6.40225553 5.03810329 -3.33511169 3.86872957 0 0 Z " fill="#1A9F5A" transform="translate(500,168)"/>
<path d="M0 0 C0.33 0 0.66 0 1 0 C2.07198754 6.64632277 1.95806423 12.83093711 1.3125 19.5 C1.24691895 20.30163574 1.18133789 21.10327148 1.11376953 21.92919922 C0.86328125 24.21875 0.86328125 24.21875 0 28 C-2.08203125 29.53125 -2.08203125 29.53125 -4 30 C-4.66 29.34 -5.32 28.68 -6 28 C-6 27.01 -6 26.02 -6 25 C-5.01 25 -4.02 25 -3 25 C-2.01 16.75 -1.02 8.5 0 0 Z " fill="#2F9E64" transform="translate(348,152)"/>
<path d="M0 0 C1.32 0.66 2.64 1.32 4 2 C4.30654742 10.61738853 4.39589303 17.93475404 1 26 C0.67 26 0.34 26 0 26 C0.33 19.07 0.66 12.14 1 5 C0.01 6.32 -0.98 7.64 -2 9 C-1.125 1.125 -1.125 1.125 0 0 Z " fill="#5AB082" transform="translate(542,157)"/>
<path d="M0 0 C0 1.65 0 3.3 0 5 C-1.5778125 5.0928125 -1.5778125 5.0928125 -3.1875 5.1875 C-7.14573173 5.66956452 -7.14573173 5.66956452 -9.625 8.625 C-10.40875 9.40875 -11.1925 10.1925 -12 11 C-14.8125 10.8125 -14.8125 10.8125 -17 10 C-17 8.68 -17 7.36 -17 6 C-16.195625 5.7525 -15.39125 5.505 -14.5625 5.25 C-10.90890445 3.96803665 -7.45945186 2.43858811 -3.953125 0.8046875 C-2 0 -2 0 0 0 Z " fill="#199B58" transform="translate(567,172)"/>
<path d="M0 0 C0.33 0.99 0.66 1.98 1 3 C10.57 3 20.14 3 30 3 C30 3.99 30 4.98 30 6 C10.03189066 6.18451025 10.03189066 6.18451025 1 5 C0.67 3.35 0.34 1.7 0 0 Z " fill="#3CA46D" transform="translate(132,120)"/>
<path d="M0 0 C0.33 0 0.66 0 1 0 C1.33 8.91 1.66 17.82 2 27 C7.83333333 24.83333333 7.83333333 24.83333333 9 22 C11.0625 21.375 11.0625 21.375 13 21 C13 24 13 24 11.6796875 25.3515625 C10.78636719 25.98191406 10.78636719 25.98191406 9.875 26.625 C9.29492188 27.05039063 8.71484375 27.47578125 8.1171875 27.9140625 C6 29 6 29 0 30 C0 20.1 0 10.2 0 0 Z " fill="#189D59" transform="translate(161,177)"/>
<path d="M0 0 C1.65 0.33 3.3 0.66 5 1 C5 8.26 5 15.52 5 23 C4.67 23 4.34 23 4 23 C2.48766299 16.53205867 1.78567421 10.64409958 2 4 C0.68 3.67 -0.64 3.34 -2 3 C-1.34 2.01 -0.68 1.02 0 0 Z " fill="#51AD7D" transform="translate(508,157)"/>
<path d="M0 0 C-3.625 3 -3.625 3 -7 3 C-7.66 6.96 -8.32 10.92 -9 15 C-7.02 15 -5.04 15 -3 15 C-6.06117568 17.62386487 -6.73173127 18 -11 18 C-11.22281874 16.08496326 -11.42771076 14.16783494 -11.625 12.25 C-11.74101563 11.18265625 -11.85703125 10.1153125 -11.9765625 9.015625 C-12.00054183 5.93028472 -11.73678548 4.50933554 -10 2 C-6.59369827 0.15875582 -3.83907326 -0.21937561 0 0 Z " fill="#73BB95" transform="translate(84,27)"/>
<path d="M0 0 C0.33 1.32 0.66 2.64 1 4 C-5.28571429 6.42857143 -5.28571429 6.42857143 -9 5 C-8.67 4.34 -8.34 3.68 -8 3 C-10.97 3.66 -13.94 4.32 -17 5 C-15.53787551 2.07575103 -13.22537218 1.65852001 -10.27734375 0.59765625 C-6.76495361 -0.32412024 -3.61542291 -0.19368337 0 0 Z " fill="#6EB790" transform="translate(503,156)"/>
<path d="M0 0 C-0.33 1.32 -0.66 2.64 -1 4 C0.65 4.66 2.3 5.32 4 6 C4 6.33 4 6.66 4 7 C1.125 7.1875 1.125 7.1875 -2 7 C-2.66 6.01 -3.32 5.02 -4 4 C-5.43931117 4.45261358 -6.87638999 4.91232979 -8.3125 5.375 C-9.11300781 5.63023437 -9.91351562 5.88546875 -10.73828125 6.1484375 C-13.22724528 6.98831811 -13.22724528 6.98831811 -16 9 C-18.1875 8.625 -18.1875 8.625 -20 8 C-7.49685535 0 -7.49685535 0 0 0 Z " fill="#45A874" transform="translate(571,169)"/>
<path d="M0 0 C1.2065625 0.0309375 1.2065625 0.0309375 2.4375 0.0625 C2.7675 1.7125 3.0975 3.3625 3.4375 5.0625 C2.7775 4.876875 2.1175 4.69125 1.4375 4.5 C-2.45580114 3.93222692 -5.67625479 4.46968293 -9.5625 5.0625 C-9.5625 5.7225 -9.5625 6.3825 -9.5625 7.0625 C-7.2525 7.7225 -4.9425 8.3825 -2.5625 9.0625 C-2.50850264 10.52042884 -2.46970823 11.97892712 -2.4375 13.4375 C-2.41429687 14.24960938 -2.39109375 15.06171875 -2.3671875 15.8984375 C-2.5625 18.0625 -2.5625 18.0625 -4.5625 20.0625 C-4.5625 16.7625 -4.5625 13.4625 -4.5625 10.0625 C-6.8725 9.4025 -9.1825 8.7425 -11.5625 8.0625 C-11.2325 6.4125 -10.9025 4.7625 -10.5625 3.0625 C-9.428125 2.753125 -8.29375 2.44375 -7.125 2.125 C0 0 0 0 0 0 Z " fill="#87C4A3" transform="translate(428.5625,155.9375)"/>
<path d="M0 0 C-0.33 1.65 -0.66 3.3 -1 5 C-1.66 5 -2.32 5 -3 5 C-3.33 4.34 -3.66 3.68 -4 3 C-8.29 3 -12.58 3 -17 3 C-17 2.34 -17 1.68 -17 1 C-12.21302585 -1.55305288 -4.98229113 -2.49114557 0 0 Z " fill="#289B60" transform="translate(577,158)"/>
<path d="M0 0 C0.66 0 1.32 0 2 0 C2.31563182 5.26053037 1.66590937 8.44573816 -1 13 C-1.66 13 -2.32 13 -3 13 C-3 12.34 -3 11.68 -3 11 C-5.16874252 11.50603992 -6.99967627 11.99983813 -9 13 C-9.66 12.34 -10.32 11.68 -11 11 C-10.43410156 10.66226563 -9.86820312 10.32453125 -9.28515625 9.9765625 C-8.55167969 9.53054687 -7.81820313 9.08453125 -7.0625 8.625 C-6.33160156 8.18414062 -5.60070312 7.74328125 -4.84765625 7.2890625 C-2.86227728 6.1226016 -2.86227728 6.1226016 -2 4 C-1.34 4 -0.68 4 0 4 C0 2.68 0 1.36 0 0 Z " fill="#45A874" transform="translate(385,164)"/>
<path d="M0 0 C0.99 0.33 1.98 0.66 3 1 C2.01 1.495 2.01 1.495 1 2 C0.97494385 2.72477539 0.9498877 3.44955078 0.92407227 4.19628906 C0.80651383 7.54763745 0.68452697 10.89881146 0.5625 14.25 C0.52318359 15.38953125 0.48386719 16.5290625 0.44335938 17.703125 C0.16800232 25.1589468 -0.30978258 32.57105863 -1 40 C-1.33 40 -1.66 40 -2 40 C-2.23065527 9.8728726 -2.23065527 9.8728726 -1 1 C-0.67 0.67 -0.34 0.34 0 0 Z " fill="#C8DFD3" transform="translate(98,88)"/>
<path d="M0 0 C0.625 1.8125 0.625 1.8125 1 4 C0.01 5.485 0.01 5.485 -1 7 C0.32 7.66 1.64 8.32 3 9 C2.360625 9.103125 1.72125 9.20625 1.0625 9.3125 C0.381875 9.539375 -0.29875 9.76625 -1 10 C-1.33 10.99 -1.66 11.98 -2 13 C-2.66 13 -3.32 13 -4 13 C-3.67 11.02 -3.34 9.04 -3 7 C-5.64 8.98 -8.28 10.96 -11 13 C-11.33 12.34 -11.66 11.68 -12 11 C-10.71372289 9.82739389 -9.42080217 8.6620717 -8.125 7.5 C-7.40570313 6.8503125 -6.68640625 6.200625 -5.9453125 5.53125 C-4 4 -4 4 -2 4 C-1.34 2.68 -0.68 1.36 0 0 Z " fill="#58B182" transform="translate(505,161)"/>
<path d="M0 0 C0.99 0 1.98 0 3 0 C2.9278125 0.59167969 2.855625 1.18335938 2.78125 1.79296875 C2.30089977 5.88261722 1.86689849 9.8738531 2 14 C1.01 14 0.02 14 -1 14 C-2.23887548 11.52224905 -2.16741669 9.76346293 -2.1875 7 C-2.20167969 6.113125 -2.21585938 5.22625 -2.23046875 4.3125 C-2 2 -2 2 0 0 Z " fill="#179D58" transform="translate(521,157)"/>
<path d="M0 0 C0.40877691 4.16952449 0.40933517 6.35870823 -1.875 9.9375 C-6.24659272 12.82275119 -9.90789339 12.44494135 -15 12 C-14.67 11.34 -14.34 10.68 -14 10 C-12.741875 10.0825 -11.48375 10.165 -10.1875 10.25 C-6.78714433 10.28703626 -6.78714433 10.28703626 -4.0625 8.3125 C-2.72837604 5.64368796 -2.72837604 5.64368796 -2 1 C-8.435 1.495 -8.435 1.495 -15 2 C-14.67 1.34 -14.34 0.68 -14 0 C-11.34765625 -0.44921875 -11.34765625 -0.44921875 -8.0625 -0.6875 C-6.44021484 -0.81705078 -6.44021484 -0.81705078 -4.78515625 -0.94921875 C-2 -1 -2 -1 0 0 Z " fill="#E7EDEA" transform="translate(498,112)"/>
<path d="M0 0 C2.31 0.33 4.62 0.66 7 1 C7.33 2.98 7.66 4.96 8 7 C7.01 7.33 6.02 7.66 5 8 C2.3125 6.3125 2.3125 6.3125 0 4 C0 2.68 0 1.36 0 0 Z " fill="#63B288" transform="translate(425,147)"/>
<path d="M0 0 C0.79148437 -0.01417969 1.58296875 -0.02835938 2.3984375 -0.04296875 C4.625 0.1875 4.625 0.1875 7.625 2.1875 C3.39550005 4.60435712 0.50164009 5.53583144 -4.375 5.1875 C-4.9375 3.25 -4.9375 3.25 -5.375 1.1875 C-3.79539731 -0.39210269 -2.17963184 0.01763456 0 0 Z " fill="#39A16A" transform="translate(532.375,171.8125)"/>
<path d="M0 0 C0 1.32 0 2.64 0 4 C-3 6.25 -3 6.25 -6 8 C-8.13093906 6.93453047 -9.36587557 5.70840281 -11 4 C-7.20307814 1.17438373 -4.81430721 -0.56638908 0 0 Z " fill="#89C2A4" transform="translate(384,43)"/>
<path d="M0 0 C0 0.99 0 1.98 0 3 C-1.6875 4.54296875 -1.6875 4.54296875 -4 6.1875 C-8.78331171 9.73518602 -12.89710321 13.69587122 -17 18 C-17.66 17.67 -18.32 17.34 -19 17 C-18.01 15.515 -18.01 15.515 -17 14 C-16.34 14 -15.68 14 -15 14 C-14.67 13.01 -14.34 12.02 -14 11 C-13.34 11 -12.68 11 -12 11 C-11.67 10.01 -11.34 9.02 -11 8 C-8.49609375 5.95703125 -8.49609375 5.95703125 -5.4375 3.8125 C-3.91962891 2.73935547 -3.91962891 2.73935547 -2.37109375 1.64453125 C-1.58863281 1.10183594 -0.80617188 0.55914062 0 0 Z " fill="#DCE8E1" transform="translate(54,40)"/>
<path d="M0 0 C0.33 0 0.66 0 1 0 C1.309375 0.969375 1.61875 1.93875 1.9375 2.9375 C2.69523342 5.84065792 2.69523342 5.84065792 4 7 C5.99958364 7.04080783 8.00045254 7.04254356 10 7 C9.67 8.32 9.34 9.64 9 11 C5.625 11.125 5.625 11.125 2 11 C0 9 0 9 -0.1953125 6.8359375 C-0.17210937 6.02382812 -0.14890625 5.21171875 -0.125 4.375 C-0.10695313 3.55773437 -0.08890625 2.74046875 -0.0703125 1.8984375 C-0.04710937 1.27195313 -0.02390625 0.64546875 0 0 Z " fill="#1F9A5A" transform="translate(447,170)"/>
<path d="M0 0 C-1.64566523 5.68502535 -4.29032784 10.76681636 -7 16 C-7.66 16 -8.32 16 -9 16 C-7.97877763 10.59352865 -6.86835937 5.78059895 -4 1 C-2 0 -2 0 0 0 Z " fill="#E9EFEC" transform="translate(38,77)"/>
<path d="M0 0 C0.66 0.33 1.32 0.66 2 1 C2 5.95 2 10.9 2 16 C1.01 15.67 0.02 15.34 -1 15 C-1.02715383 13.25008666 -1.04646551 11.50005055 -1.0625 9.75 C-1.07410156 8.77546875 -1.08570313 7.8009375 -1.09765625 6.796875 C-1.01195577 4.34241322 -0.70706066 2.33831086 0 0 Z " fill="#3AA56D" transform="translate(430,160)"/>
<path d="M0 0 C1.98 0.495 1.98 0.495 4 1 C3.01 1 2.02 1 1 1 C1 1.66 1 2.32 1 3 C3.31 3 5.62 3 8 3 C8.16798051 5.27073652 8.33434113 7.54159293 8.5 9.8125 C8.5928125 11.07707031 8.685625 12.34164062 8.78125 13.64453125 C8.91914781 15.75978517 9 17.88025592 9 20 C8.34 20 7.68 20 7 20 C5.96409801 14.94997778 5.89748328 10.12583611 6 5 C3.69 4.34 1.38 3.68 -1 3 C-0.67 2.01 -0.34 1.02 0 0 Z " fill="#269B5E" transform="translate(419,160)"/>
<path d="M0 0 C0.33 0 0.66 0 1 0 C2.0712828 6.02596573 2.09945415 11.88909517 2 18 C3.32 17.34 4.64 16.68 6 16 C6.33 16.66 6.66 17.32 7 18 C5.02 18.66 3.04 19.32 1 20 C0 19 0 19 -0.11352539 17.14233398 C-0.10828857 16.35157471 -0.10305176 15.56081543 -0.09765625 14.74609375 C-0.09443359 13.89208984 -0.09121094 13.03808594 -0.08789062 12.15820312 C-0.07951172 11.26037109 -0.07113281 10.36253906 -0.0625 9.4375 C-0.05798828 8.53580078 -0.05347656 7.63410156 -0.04882812 6.70507812 C-0.03700225 4.46998686 -0.0205222 2.23502563 0 0 Z " fill="#65B48A" transform="translate(159,189)"/>
<path d="M0 0 C0.05416188 1.60379341 0.09286638 3.20811406 0.125 4.8125 C0.14820313 5.70582031 0.17140625 6.59914063 0.1953125 7.51953125 C0 10 0 10 -2 13 C-2.33 9.7 -2.66 6.4 -3 3 C-4.65 4.65 -6.3 6.3 -8 8 C-7.32253522 3.25774652 -4.9532836 0 0 0 Z " fill="#E6EDE9" transform="translate(52,61)"/>
<path d="M0 0 C0 0.33 0 0.66 0 1 C-0.969375 1.12375 -1.93875 1.2475 -2.9375 1.375 C-4.4534375 1.684375 -4.4534375 1.684375 -6 2 C-6.33 2.66 -6.66 3.32 -7 4 C-8.32796291 4.35412344 -9.66216607 4.68521554 -11 5 C-11.99 5.66 -12.98 6.32 -14 7 C-17.1875 7.125 -17.1875 7.125 -20 7 C-20 6.67 -20 6.34 -20 6 C-19.13375 5.7525 -18.2675 5.505 -17.375 5.25 C-13.92362206 4.1495935 -13.92362206 4.1495935 -11.125 1.875 C-7.03203205 -0.58078077 -4.69665908 -0.32390752 0 0 Z " fill="#E3EDE8" transform="translate(423,24)"/>
<path d="M0 0 C1.3602366 0.03301545 2.72004838 0.09234554 4.078125 0.17578125 C4.77550781 0.19833984 5.47289062 0.22089844 6.19140625 0.24414062 C7.90457435 0.30281077 9.61663123 0.39248869 11.328125 0.48828125 C11.328125 0.81828125 11.328125 1.14828125 11.328125 1.48828125 C5.94785475 2.67917111 0.87521116 3.78023315 -4.671875 3.48828125 C-4.671875 4.47828125 -4.671875 5.46828125 -4.671875 6.48828125 C-5.661875 6.15828125 -6.651875 5.82828125 -7.671875 5.48828125 C-5.37862646 1.73515542 -4.46205632 0.59335855 0 0 Z " fill="#49AC78" transform="translate(561.671875,159.51171875)"/>
<path d="M0 0 C1.32 0.33 2.64 0.66 4 1 C4 2.98 4 4.96 4 7 C3.67 6.01 3.34 5.02 3 4 C2.34 4 1.68 4 1 4 C1 8.62 1 13.24 1 18 C0.67 18 0.34 18 0 18 C0 12.06 0 6.12 0 0 Z " fill="#2CA265" transform="translate(395,148)"/>
<path d="M0 0 C-0.33 0.99 -0.66 1.98 -1 3 C-3.06640625 3.94921875 -3.06640625 3.94921875 -5.5625 4.6875 C-6.38878906 4.93886719 -7.21507812 5.19023437 -8.06640625 5.44921875 C-9.02353516 5.72185547 -9.02353516 5.72185547 -10 6 C-10 6.66 -10 7.32 -10 8 C-10.66 8 -11.32 8 -12 8 C-11.62118922 5.25362183 -11.22167713 4.19950942 -9.125 2.3125 C-5.86153933 0.29683311 -3.88429927 0 0 0 Z " fill="#1D9B5A" transform="translate(495,159)"/>
<path d="M0 0 C0.33 0 0.66 0 1 0 C0.67 4.29 0.34 8.58 0 13 C-0.66 13 -1.32 13 -2 13 C-2.66 11.68 -3.32 10.36 -4 9 C-3.34 8.01 -2.68 7.02 -2 6 C-1.29835358 4.01200182 -0.62627128 2.01301483 0 0 Z " fill="#03A450" transform="translate(543,161)"/>
<path d="M0 0 C-0.66 1.65 -1.32 3.3 -2 5 C-3.32 5 -4.64 5 -6 5 C-6.33 3.35 -6.66 1.7 -7 0 C-4.3333581 -1.33332095 -2.83319697 -0.67102033 0 0 Z " fill="#E4ECE8" transform="translate(418,16)"/>
<path d="M0 0 C0.33 0 0.66 0 1 0 C1.04898437 0.60328125 1.09796875 1.2065625 1.1484375 1.828125 C1.22320312 2.62734375 1.29796875 3.4265625 1.375 4.25 C1.44460938 5.03890625 1.51421875 5.8278125 1.5859375 6.640625 C2.01507113 9.085877 2.78600638 10.84836903 4 13 C2.0625 12.625 2.0625 12.625 0 12 C-1.1898306 9.6203388 -1.13349966 8.08514265 -1.125 5.4375 C-1.12886719 4.22900391 -1.12886719 4.22900391 -1.1328125 2.99609375 C-1 1 -1 1 0 0 Z " fill="#38A26A" transform="translate(508,169)"/>
<path d="M0 0 C3.94727588 -0.17942163 6.5980513 -0.09350689 10 2 C9.67 2.99 9.34 3.98 9 5 C4.545 4.01 4.545 4.01 0 3 C0 2.01 0 1.02 0 0 Z " fill="#239B5D" transform="translate(374,157)"/>
<path d="M0 0 C2.97 0 5.94 0 9 0 C8.67 0.99 8.34 1.98 8 3 C5.69 3.33 3.38 3.66 1 4 C0.67 2.68 0.34 1.36 0 0 Z " fill="#179C58" transform="translate(363,51)"/>
<path d="M0 0 C0.99 0.33 1.98 0.66 3 1 C2.34 1.86625 1.68 2.7325 1 3.625 C-1.12695385 7.21423463 -1.38790972 8.92694798 -1 13 C-1.66 12.67 -2.32 12.34 -3 12 C-3.36923077 4.61538462 -3.36923077 4.61538462 -1.5 1.5 C-1.005 1.005 -0.51 0.51 0 0 Z " fill="#1A9A58" transform="translate(359,163)"/>
<path d="M0 0 C0.33 0 0.66 0 1 0 C1.19448477 2.12437212 1.38038289 4.24953191 1.5625 6.375 C1.66691406 7.55835938 1.77132812 8.74171875 1.87890625 9.9609375 C2 13 2 13 1 15 C0.34 15 -0.32 15 -1 15 C-0.67 10.05 -0.34 5.1 0 0 Z " fill="#2CA063" transform="translate(196,126)"/>
<path d="M0 0 C1.63001953 0.01353516 1.63001953 0.01353516 3.29296875 0.02734375 C4.12441406 0.03894531 4.95585938 0.05054687 5.8125 0.0625 C3.15415958 1.4250385 0.77858679 2.5681522 -2.1875 3.0625 C-2.8475 2.7325 -3.5075 2.4025 -4.1875 2.0625 C-6.5275417 2.34491883 -8.86254723 2.67500787 -11.1875 3.0625 C-7.77577281 -0.34922719 -4.59805191 -0.04944142 0 0 Z " fill="#E7EEEA" transform="translate(566.1875,77.9375)"/>
<path d="M0 0 C0.60714844 0.19851562 1.21429688 0.39703125 1.83984375 0.6015625 C1.29714844 0.89289063 0.75445312 1.18421875 0.1953125 1.484375 C-4.58318107 4.22232267 -7.16543976 6.24076192 -9.16015625 11.6015625 C-10.16015625 8.6015625 -10.16015625 8.6015625 -9.03515625 6.1640625 C-3.98679908 -0.73535896 -3.98679908 -0.73535896 0 0 Z " fill="#82C19F" transform="translate(454.16015625,162.3984375)"/>
<path d="M0 0 C1.65 0 3.3 0 5 0 C5.33 1.65 5.66 3.3 6 5 C5.236875 4.835 4.47375 4.67 3.6875 4.5 C0.96403764 3.90854604 0.96403764 3.90854604 -2 4 C-1.34 2.68 -0.68 1.36 0 0 Z " fill="#6AB78F" transform="translate(426,156)"/>
<path d="M0 0 C2.64 0 5.28 0 8 0 C7.67 1.32 7.34 2.64 7 4 C5.35 4.33 3.7 4.66 2 5 C1.34 3.35 0.68 1.7 0 0 Z " fill="#EBF0ED" transform="translate(454,0)"/>
<path d="M0 0 C0.66 0.66 1.32 1.32 2 2 C-2.455 4.97 -2.455 4.97 -7 8 C-7 6.68 -7 5.36 -7 4 C-6.01 3.67 -5.02 3.34 -4 3 C-3.67 2.34 -3.34 1.68 -3 1 C-2.01 0.67 -1.02 0.34 0 0 Z " fill="#30A166" transform="translate(173,198)"/>
<path d="M0 0 C3.63 0 7.26 0 11 0 C11 0.66 11 1.32 11 2 C5.06 2.495 5.06 2.495 -1 3 C-0.67 2.01 -0.34 1.02 0 0 Z " fill="#34A066" transform="translate(560,177)"/>
<path d="M0 0 C0 1.65 0 3.3 0 5 C-2.31 5 -4.62 5 -7 5 C-6 2 -6 2 -4.0625 0.8125 C-2 0 -2 0 0 0 Z " fill="#07A253" transform="translate(567,172)"/>
<path d="M0 0 C0.66 0.33 1.32 0.66 2 1 C2.33 1.99 2.66 2.98 3 4 C1.56656 4.53190541 0.12804633 5.05015258 -1.3125 5.5625 C-2.51326172 5.99755859 -2.51326172 5.99755859 -3.73828125 6.44140625 C-6 7 -6 7 -9 6 C-4.25 3 -4.25 3 -2 3 C-2 2.34 -2 1.68 -2 1 C-1.34 0.67 -0.68 0.34 0 0 Z " fill="#E6EEEA" transform="translate(478,92)"/>
<path d="M0 0 C1.67542976 0.28604898 3.34385343 0.61781233 5 1 C4.34 2.65 3.68 4.3 3 6 C2.01 5.67 1.02 5.34 0 5 C-0.75 3 -0.75 3 -1 1 C-0.67 0.67 -0.34 0.34 0 0 Z " fill="#EBF1EE" transform="translate(474,42)"/>
<path d="M0 0 C1.32 0 2.64 0 4 0 C3.67 1.32 3.34 2.64 3 4 C2.67 3.67 2.34 3.34 2 3 C1.67 6.63 1.34 10.26 1 14 C0.34 13.67 -0.32 13.34 -1 13 C-0.67 8.71 -0.34 4.42 0 0 Z " fill="#55AB7E" transform="translate(467,147)"/>
<path d="M0 0 C0.33 0 0.66 0 1 0 C0.67 2.31 0.34 4.62 0 7 C-1.32 6.67 -2.64 6.34 -4 6 C-4.33 4.68 -4.66 3.36 -5 2 C-3.02 2.99 -3.02 2.99 -1 4 C-0.67 2.68 -0.34 1.36 0 0 Z " fill="#33A166" transform="translate(473,174)"/>
<path d="M0 0 C1.09570312 0.00902344 2.19140625 0.01804688 3.3203125 0.02734375 C4.16335938 0.03894531 5.00640625 0.05054688 5.875 0.0625 C5.875 0.3925 5.875 0.7225 5.875 1.0625 C3.82421875 1.29036458 1.7734375 1.51822917 -0.27734375 1.74609375 C-2.13640229 1.88136614 -2.13640229 1.88136614 -3.125 3.0625 C-4.79117115 3.10313832 -6.45888095 3.105221 -8.125 3.0625 C-8.125 2.4025 -8.125 1.7425 -8.125 1.0625 C-5.36047967 -0.31976016 -3.0788637 -0.03275387 0 0 Z " fill="#159C57" transform="translate(568.125,157.9375)"/>
<path d="M0 0 C0.66 0.33 1.32 0.66 2 1 C1.46375 1.33 0.9275 1.66 0.375 2 C-1.23831789 3.87266716 -1.23831789 3.87266716 -0.75390625 5.98046875 C-0.23438369 8.00481529 0.37848362 10.0046053 1 12 C0.34 12 -0.32 12 -1 12 C-2.58076658 8.54207311 -3.51579638 5.8168932 -3 2 C-2.01 1.34 -1.02 0.68 0 0 Z " fill="#E8EEEB" transform="translate(468,82)"/>
<path d="M0 0 C-3.96 1.65 -7.92 3.3 -12 5 C-12 3 -12 3 -10 1 C-8.67696283 0.6278958 -7.34262065 0.29369827 -6 0 C-4 -1 -4 -1 0 0 Z " fill="#E7EDEA" transform="translate(335,66)"/>
<path d="M0 0 C0 0.66 0 1.32 0 2 C-1.53125 3.2890625 -1.53125 3.2890625 -3.5 4.625 C-4.1496875 5.07101563 -4.799375 5.51703125 -5.46875 5.9765625 C-5.9740625 6.31429687 -6.479375 6.65203125 -7 7 C-6.6875 4.625 -6.6875 4.625 -6 2 C-3 0 -3 0 0 0 Z " fill="#2FA064" transform="translate(182,192)"/>
<path d="M0 0 C4.455 0.99 4.455 0.99 9 2 C8.67 2.66 8.34 3.32 8 4 C5.35139573 4.59355614 2.70802678 4.74209269 0 5 C0 3.33333333 0 1.66666667 0 0 Z " fill="#199957" transform="translate(430,175)"/>
<path d="M0 0 C1.32 0.33 2.64 0.66 4 1 C4 2.98 4 4.96 4 7 C3.34 7 2.68 7 2 7 C1.67 5.68 1.34 4.36 1 3 C0.01 3 -0.98 3 -2 3 C-1.34 2.01 -0.68 1.02 0 0 Z " fill="#56AF7F" transform="translate(410,172)"/>
<path d="M0 0 C1.11375 0.185625 2.2275 0.37125 3.375 0.5625 C6.82568861 1.31680657 6.82568861 1.31680657 9 0 C9.66 1.32 10.32 2.64 11 4 C6.44262737 3.56179109 3.42346555 3.14958831 0 0 Z " fill="#E9F0EC" transform="translate(59,167)"/>
<path d="M0 0 C1.32 0.33 2.64 0.66 4 1 C2.68 1.99 1.36 2.98 0 4 C0 2.68 0 1.36 0 0 Z M-2 5 C-0.02 5.495 -0.02 5.495 2 6 C2 6.66 2 7.32 2 8 C0.35 8 -1.3 8 -3 8 C-2.67 7.01 -2.34 6.02 -2 5 Z " fill="#159E57" transform="translate(506,161)"/>
<path d="M0 0 C1.98 0 3.96 0 6 0 C5.67 1.32 5.34 2.64 5 4 C3.68 4 2.36 4 1 4 C0.67 2.68 0.34 1.36 0 0 Z " fill="#179D58" transform="translate(527,173)"/>
<path d="M0 0 C0.66 0.33 1.32 0.66 2 1 C-0.31 3.31 -2.62 5.62 -5 8 C-5.66 7.67 -6.32 7.34 -7 7 C-6.34 6.01 -5.68 5.02 -5 4 C-4.34 4 -3.68 4 -3 4 C-2.67 3.01 -2.34 2.02 -2 1 C-1.34 0.67 -0.68 0.34 0 0 Z " fill="#E4EBE7" transform="translate(42,50)"/>
<path d="M0 0 C2.2344598 4.03292745 2.54496743 7.44967434 3 12 C0.89366282 10.29171079 0.06198392 9.47851584 -0.29296875 6.73828125 C-0.25816406 5.93777344 -0.22335938 5.13726562 -0.1875 4.3125 C-0.16042969 3.50425781 -0.13335937 2.69601563 -0.10546875 1.86328125 C-0.07066406 1.24839844 -0.03585938 0.63351563 0 0 Z " fill="#3FA770" transform="translate(207,97)"/>
<path d="M0 0 C1.98 1.65 3.96 3.3 6 5 C5.67 5.66 5.34 6.32 5 7 C2.5 5.75 2.5 5.75 0 4 C0 2.68 0 1.36 0 0 Z " fill="#33A167" transform="translate(183,54)"/>
<path d="M0 0 C2 1.375 2 1.375 4 3 C4 3.66 4 4.32 4 5 C4.99 5.33 5.98 5.66 7 6 C6.67 6.66 6.34 7.32 6 8 C3.69 6.02 1.38 4.04 -1 2 C-0.67 1.34 -0.34 0.68 0 0 Z " fill="#E5EDE9" transform="translate(41,192)"/>
<path d="M0 0 C0.33 0 0.66 0 1 0 C1.144375 1.0725 1.28875 2.145 1.4375 3.25 C1.83749442 5.91662949 2.27591924 8.41399729 3 11 C2.01 10.67 1.02 10.34 0 10 C-1.231394 6.30581799 -0.64432764 3.7943739 0 0 Z " fill="#289E60" transform="translate(395,169)"/>
<path d="M0 0 C0.66 0 1.32 0 2 0 C2 2.31 2 4.62 2 7 C1.01 7.33 0.02 7.66 -1 8 C-0.67 5.36 -0.34 2.72 0 0 Z " fill="#1D9758" transform="translate(385,164)"/>
<path d="M0 0 C-4.43076923 3.07692308 -4.43076923 3.07692308 -7.3125 2.6875 C-8.1478125 2.3471875 -8.1478125 2.3471875 -9 2 C-8 0 -8 0 -6.1875 -0.6875 C-3.81180233 -1.02688538 -2.26664171 -0.72856341 0 0 Z " fill="#51AC7C" transform="translate(494,163)"/>
<path d="M0 0 C2.97 0 5.94 0 9 0 C7.25 1.5625 7.25 1.5625 5 3 C2.8125 2.8125 2.8125 2.8125 1 2 C0.67 1.34 0.34 0.68 0 0 Z " fill="#2C9860" transform="translate(355,56)"/>
<path d="M0 0 C-3.625 3 -3.625 3 -7 3 C-7.33 3.99 -7.66 4.98 -8 6 C-8.33 5.01 -8.66 4.02 -9 3 C-5.92807025 0.26939578 -4.09590633 -0.34132553 0 0 Z " fill="#54B080" transform="translate(84,27)"/>
<path d="M0 0 C0.66 0.66 1.32 1.32 2 2 C4.60280568 1.67958603 4.60280568 1.67958603 7 1 C7 1.99 7 2.98 7 4 C3.98968256 4.93423645 3.13349732 5.04449911 0 4 C0 2.68 0 1.36 0 0 Z " fill="#31A165" transform="translate(550,178)"/>
<path d="M0 0 C0.66 0 1.32 0 2 0 C1.67 3.3 1.34 6.6 1 10 C0.34 9.67 -0.32 9.34 -1 9 C-1.125 2.25 -1.125 2.25 0 0 Z " fill="#1B9858" transform="translate(480,168)"/>
<path d="M0 0 C0 0.66 0 1.32 0 2 C-1.62626404 3.38232443 -3.2925002 4.71937515 -5 6 C-5.66 5.34 -6.32 4.68 -7 4 C-2.25 0 -2.25 0 0 0 Z " fill="#EAEFED" transform="translate(377,80)"/>
<path d="M0 0 C1.32 0 2.64 0 4 0 C4 0.99 4 1.98 4 3 C2.68 3 1.36 3 0 3 C0 2.01 0 1.02 0 0 Z " fill="#E6EDE9" transform="translate(430,12)"/>
<path d="M0 0 C0.99 0 1.98 0 3 0 C3 0.99 3 1.98 3 3 C2.01 3 1.02 3 0 3 C0 2.01 0 1.02 0 0 Z " fill="#D9E8E0" transform="translate(474,12)"/>
</svg>
